M48
; DRILL file KiCad 10.0.1 date 2026-06-07T20:47:41
; FORMAT={-:-/ absolute / metric / decimal}
; #@! TF.CreationDate,2026-06-07T20:47:41+05:30
; #@! TF.GenerationSoftware,Kicad,Pcbnew,10.0.1
; #@! TF.FileFunction,Plated,1,2,PTH
FMAT,2
METRIC
; #@! TA.AperFunction,Plated,PTH,ViaDrill
T1C0.300
; #@! TA.AperFunction,Plated,PTH,ComponentDrill
T2C0.700
; #@! TA.AperFunction,Plated,PTH,ComponentDrill
T3C0.889
; #@! TA.AperFunction,Plated,PTH,ComponentDrill
T4C1.210
; #@! TA.AperFunction,Plated,PTH,ComponentDrill
T5C1.500
%
G90
G05
T1
X162.0Y-89.1
X165.0Y-88.6
T2
X116.0Y-90.92
X116.0Y-96.0
X124.0Y-90.92
X124.0Y-96.0
X131.0Y-90.96
X131.0Y-96.04
T3
X160.112Y-86.88
X160.112Y-102.12
X162.651Y-86.88
X162.651Y-102.12
X165.191Y-86.88
X165.191Y-102.12
X167.731Y-86.88
X167.731Y-102.12
X170.272Y-86.88
X170.272Y-102.12
X172.811Y-86.88
X172.811Y-102.12
X175.351Y-86.88
X175.351Y-102.12
T4
X116.0Y-111.73
X116.0Y-114.27
X140.593Y-112.106
X140.593Y-114.646
X165.0Y-112.73
X165.0Y-115.27
T5
X109.92Y-128.04
X112.46Y-134.39
X134.92Y-128.04
X137.46Y-134.39
X159.92Y-128.04
X162.46Y-134.39
M30
