%TF.GenerationSoftware,KiCad,Pcbnew,10.0.1*%
%TF.CreationDate,2026-06-07T20:47:37+05:30*%
%TF.ProjectId,Pathfinder,50617468-6669-46e6-9465-722e6b696361,rev?*%
%TF.SameCoordinates,Original*%
%TF.FileFunction,Soldermask,Top*%
%TF.FilePolarity,Negative*%
%FSLAX46Y46*%
G04 Gerber Fmt 4.6, Leading zero omitted, Abs format (unit mm)*
G04 Created by KiCad (PCBNEW 10.0.1) date 2026-06-07 20:47:37*
%MOMM*%
%LPD*%
G01*
G04 APERTURE LIST*
G04 Aperture macros list*
%AMRoundRect*
0 Rectangle with rounded corners*
0 $1 Rounding radius*
0 $2 $3 $4 $5 $6 $7 $8 $9 X,Y pos of 4 corners*
0 Add a 4 corners polygon primitive as box body*
4,1,4,$2,$3,$4,$5,$6,$7,$8,$9,$2,$3,0*
0 Add four circle primitives for the rounded corners*
1,1,$1+$1,$2,$3*
1,1,$1+$1,$4,$5*
1,1,$1+$1,$6,$7*
1,1,$1+$1,$8,$9*
0 Add four rect primitives between the rounded corners*
20,1,$1+$1,$2,$3,$4,$5,0*
20,1,$1+$1,$4,$5,$6,$7,0*
20,1,$1+$1,$6,$7,$8,$9,0*
20,1,$1+$1,$8,$9,$2,$3,0*%
G04 Aperture macros list end*
%ADD10C,1.400000*%
%ADD11C,2.200000*%
%ADD12C,1.700000*%
%ADD13C,4.000000*%
%ADD14C,2.019000*%
%ADD15RoundRect,0.102000X0.907500X-0.907500X0.907500X0.907500X-0.907500X0.907500X-0.907500X-0.907500X0*%
%ADD16RoundRect,0.152400X0.609600X-1.063600X0.609600X1.063600X-0.609600X1.063600X-0.609600X-1.063600X0*%
%ADD17C,1.524000*%
%ADD18RoundRect,0.152400X-0.609600X1.063600X-0.609600X-1.063600X0.609600X-1.063600X0.609600X1.063600X0*%
G04 APERTURE END LIST*
D10*
%TO.C,R1*%
X116000000Y-90920000D03*
X116000000Y-96000000D03*
%TD*%
%TO.C,R2*%
X124000000Y-90920000D03*
X124000000Y-96000000D03*
%TD*%
%TO.C,R3*%
X131000000Y-90960000D03*
X131000000Y-96040000D03*
%TD*%
D11*
%TO.C,SW1*%
X112460000Y-134390000D03*
X109920000Y-128040000D03*
D12*
X115000000Y-125500000D03*
D13*
X115000000Y-130580000D03*
D12*
X115000000Y-135660000D03*
%TD*%
D11*
%TO.C,SW2*%
X137460000Y-134390000D03*
X134920000Y-128040000D03*
D12*
X140000000Y-125500000D03*
D13*
X140000000Y-130580000D03*
D12*
X140000000Y-135660000D03*
%TD*%
D11*
%TO.C,SW3*%
X162460000Y-134390000D03*
X159920000Y-128040000D03*
D12*
X165000000Y-125500000D03*
D13*
X165000000Y-130580000D03*
D12*
X165000000Y-135660000D03*
%TD*%
D14*
%TO.C,D2*%
X140593055Y-112105645D03*
D15*
X140593055Y-114645645D03*
%TD*%
D16*
%TO.C,XIAO RP2040*%
X175351500Y-86045000D03*
D17*
X175351500Y-86880000D03*
D16*
X172811500Y-86045000D03*
D17*
X172811500Y-86880000D03*
D16*
X170271500Y-86045000D03*
D17*
X170271500Y-86880000D03*
D16*
X167731500Y-86045000D03*
D17*
X167731500Y-86880000D03*
D16*
X165191500Y-86045000D03*
D17*
X165191500Y-86880000D03*
D16*
X162651500Y-86045000D03*
D17*
X162651500Y-86880000D03*
D16*
X160111500Y-86045000D03*
D17*
X160111500Y-86880000D03*
X160111500Y-102120000D03*
D18*
X160111500Y-102955000D03*
D17*
X162651500Y-102120000D03*
D18*
X162651500Y-102955000D03*
D17*
X165191500Y-102120000D03*
D18*
X165191500Y-102955000D03*
D17*
X167731500Y-102120000D03*
D18*
X167731500Y-102955000D03*
D17*
X170271500Y-102120000D03*
D18*
X170271500Y-102955000D03*
D17*
X172811500Y-102120000D03*
D18*
X172811500Y-102955000D03*
D17*
X175351500Y-102120000D03*
D18*
X175351500Y-102955000D03*
%TD*%
D14*
%TO.C,D1*%
X116000000Y-111730000D03*
D15*
X116000000Y-114270000D03*
%TD*%
D14*
%TO.C,D3*%
X165000000Y-112730000D03*
D15*
X165000000Y-115270000D03*
%TD*%
M02*
