%TF.GenerationSoftware,KiCad,Pcbnew,10.0.1*%
%TF.CreationDate,2026-06-07T20:47:37+05:30*%
%TF.ProjectId,Pathfinder,50617468-6669-46e6-9465-722e6b696361,rev?*%
%TF.SameCoordinates,Original*%
%TF.FileFunction,Legend,Top*%
%TF.FilePolarity,Positive*%
%FSLAX46Y46*%
G04 Gerber Fmt 4.6, Leading zero omitted, Abs format (unit mm)*
G04 Created by KiCad (PCBNEW 10.0.1) date 2026-06-07 20:47:37*
%MOMM*%
%LPD*%
G01*
G04 APERTURE LIST*
%ADD10C,0.145757*%
%ADD11C,0.200000*%
%ADD12C,0.150000*%
%ADD13C,0.101600*%
%ADD14C,0.120000*%
%ADD15C,0.127000*%
%ADD16C,0.100000*%
%ADD17C,0.504000*%
G04 APERTURE END LIST*
D10*
X155287236Y-93090023D02*
X155298262Y-93080107D01*
X155224637Y-93104501D02*
X155287236Y-93090023D01*
X155176117Y-93108357D02*
X155224637Y-93104501D01*
X155061487Y-93113842D02*
X155176117Y-93108357D01*
X155073805Y-93062816D02*
X155061487Y-93113842D01*
X155087771Y-93006699D02*
X155073805Y-93062816D01*
X155104051Y-92943463D02*
X155087771Y-93006699D01*
X155121955Y-92875139D02*
X155104051Y-92943463D01*
X155230571Y-92875139D02*
X155121955Y-92875139D01*
X155259478Y-92875435D02*
X155230571Y-92875139D01*
X155302028Y-92878183D02*
X155259478Y-92875435D01*
X155334080Y-92889233D02*
X155302028Y-92878183D01*
X155339181Y-92902467D02*
X155334080Y-92889233D01*
X155334623Y-92915448D02*
X155339181Y-92902467D01*
X155291358Y-92928427D02*
X155334623Y-92915448D01*
X155248088Y-92929797D02*
X155291358Y-92928427D01*
X155208276Y-92931220D02*
X155248088Y-92929797D01*
X155162558Y-92942620D02*
X155208276Y-92931220D01*
X155156740Y-92952567D02*
X155162558Y-92942620D01*
X155153338Y-92980696D02*
X155156740Y-92952567D01*
X155145507Y-93016337D02*
X155153338Y-92980696D01*
X155141609Y-93038882D02*
X155145507Y-93016337D01*
X155158716Y-93054453D02*
X155141609Y-93038882D01*
X155193577Y-93057143D02*
X155158716Y-93054453D01*
X155220155Y-93057338D02*
X155193577Y-93057143D01*
X155258568Y-93058632D02*
X155220155Y-93057338D01*
X155296785Y-93069773D02*
X155258568Y-93058632D01*
X155298262Y-93080107D02*
X155296785Y-93069773D01*
X150899303Y-93221309D02*
X150939758Y-93071000D01*
X150957881Y-93221309D02*
X150899303Y-93221309D01*
X151016460Y-93221309D02*
X150957881Y-93221309D01*
X151073454Y-93005895D02*
X151016460Y-93221309D01*
X151095582Y-92921274D02*
X151073454Y-93005895D01*
X151120688Y-92821952D02*
X151095582Y-92921274D01*
X151129288Y-92785025D02*
X151120688Y-92821952D01*
X151130453Y-92778152D02*
X151129288Y-92785025D01*
X151126199Y-92773366D02*
X151130453Y-92778152D01*
X151097451Y-92766786D02*
X151126199Y-92773366D01*
X151076495Y-92765812D02*
X151097451Y-92766786D01*
X151057233Y-92765322D02*
X151076495Y-92765812D01*
X151030681Y-92774885D02*
X151057233Y-92765322D01*
X151013282Y-92809072D02*
X151030681Y-92774885D01*
X150999087Y-92853186D02*
X151013282Y-92809072D01*
X150980444Y-92919610D02*
X150999087Y-92853186D01*
X150955352Y-93012883D02*
X150980444Y-92919610D01*
X150939758Y-93071000D02*
X150955352Y-93012883D01*
X152426855Y-93221309D02*
X152463086Y-93089213D01*
X152486375Y-93221309D02*
X152426855Y-93221309D01*
X152545877Y-93221309D02*
X152486375Y-93221309D01*
X152603389Y-93005010D02*
X152545877Y-93221309D01*
X152625720Y-92920127D02*
X152603389Y-93005010D01*
X152651037Y-92820721D02*
X152625720Y-92920127D01*
X152659727Y-92783978D02*
X152651037Y-92820721D01*
X152660899Y-92777264D02*
X152659727Y-92783978D01*
X152656625Y-92772819D02*
X152660899Y-92777264D01*
X152627776Y-92766723D02*
X152656625Y-92772819D01*
X152606747Y-92765812D02*
X152627776Y-92766723D01*
X152587460Y-92765391D02*
X152606747Y-92765812D01*
X152560458Y-92776063D02*
X152587460Y-92765391D01*
X152542112Y-92812651D02*
X152560458Y-92776063D01*
X152526893Y-92859469D02*
X152542112Y-92812651D01*
X152506821Y-92929697D02*
X152526893Y-92859469D01*
X152479829Y-93028035D02*
X152506821Y-92929697D01*
X152463086Y-93089213D02*
X152479829Y-93028035D01*
X152704976Y-93161886D02*
X152691091Y-93134763D01*
X152727652Y-93197972D02*
X152704976Y-93161886D01*
X152765759Y-93219248D02*
X152727652Y-93197972D01*
X152806961Y-93221309D02*
X152765759Y-93219248D01*
X152835144Y-93220568D02*
X152806961Y-93221309D01*
X152873813Y-93215565D02*
X152835144Y-93220568D01*
X152879545Y-93211923D02*
X152873813Y-93215565D01*
X152875023Y-93200276D02*
X152879545Y-93211923D01*
X152844529Y-93141245D02*
X152875023Y-93200276D01*
X152822313Y-93101132D02*
X152844529Y-93141245D01*
X152765088Y-92999733D02*
X152822313Y-93101132D01*
X152880998Y-92882774D02*
X152765088Y-92999733D01*
X152996910Y-92765812D02*
X152880998Y-92882774D01*
X152923877Y-92765812D02*
X152996910Y-92765812D01*
X152882904Y-92768801D02*
X152923877Y-92765812D01*
X152831909Y-92792051D02*
X152882904Y-92768801D01*
X152792091Y-92827129D02*
X152831909Y-92792051D01*
X152767155Y-92852366D02*
X152792091Y-92827129D01*
X152728159Y-92894620D02*
X152767155Y-92852366D01*
X152677428Y-92965870D02*
X152728159Y-92894620D01*
X152660388Y-93029170D02*
X152677428Y-92965870D01*
X152673877Y-93096200D02*
X152660388Y-93029170D01*
X152691091Y-93134763D02*
X152673877Y-93096200D01*
X151260922Y-93198595D02*
X151265989Y-93171201D01*
X151279704Y-93220002D02*
X151260922Y-93198595D01*
X151309970Y-93221309D02*
X151279704Y-93220002D01*
X151340062Y-93219080D02*
X151309970Y-93221309D01*
X151372888Y-93189001D02*
X151340062Y-93219080D01*
X151384549Y-93152984D02*
X151372888Y-93189001D01*
X151395262Y-93113874D02*
X151384549Y-93152984D01*
X151428701Y-92992535D02*
X151395262Y-93113874D01*
X151447300Y-92925238D02*
X151428701Y-92992535D01*
X151491401Y-92765812D02*
X151447300Y-92925238D01*
X151431515Y-92765812D02*
X151491401Y-92765812D01*
X151398109Y-92767891D02*
X151431515Y-92765812D01*
X151370217Y-92788307D02*
X151398109Y-92767891D01*
X151357685Y-92822357D02*
X151370217Y-92788307D01*
X151350988Y-92847801D02*
X151357685Y-92822357D01*
X151330343Y-92929797D02*
X151350988Y-92847801D01*
X151241635Y-92929797D02*
X151330343Y-92929797D01*
X151215744Y-92930105D02*
X151241635Y-92929797D01*
X151178935Y-92933437D02*
X151215744Y-92930105D01*
X151150744Y-92949452D02*
X151178935Y-92933437D01*
X151141941Y-92970786D02*
X151150744Y-92949452D01*
X151135422Y-92997120D02*
X151141941Y-92970786D01*
X151132582Y-93032778D02*
X151135422Y-92997120D01*
X151147459Y-93050718D02*
X151132582Y-93032778D01*
X151184924Y-93056843D02*
X151147459Y-93050718D01*
X151213668Y-93057338D02*
X151184924Y-93056843D01*
X151237476Y-93057588D02*
X151213668Y-93057338D01*
X151270199Y-93060277D02*
X151237476Y-93057588D01*
X151289226Y-93072801D02*
X151270199Y-93060277D01*
X151287417Y-93089213D02*
X151289226Y-93072801D01*
X151277221Y-93126450D02*
X151287417Y-93089213D01*
X151265989Y-93171201D02*
X151277221Y-93126450D01*
X153851982Y-93193832D02*
X153854968Y-93180315D01*
X153859617Y-93211283D02*
X153851982Y-93193832D01*
X153903062Y-93219133D02*
X153859617Y-93211283D01*
X153971873Y-93221024D02*
X153903062Y-93219133D01*
X154039969Y-93221295D02*
X153971873Y-93221024D01*
X154081687Y-93221309D02*
X154039969Y-93221295D01*
X154173805Y-93220229D02*
X154081687Y-93221309D01*
X154278340Y-93215264D02*
X154173805Y-93220229D01*
X154314246Y-93210389D02*
X154278340Y-93215264D01*
X154319141Y-93207643D02*
X154314246Y-93210389D01*
X154322538Y-93185952D02*
X154319141Y-93207643D01*
X154330370Y-93152984D02*
X154322538Y-93185952D01*
X154333519Y-93139614D02*
X154330370Y-93152984D01*
X154328686Y-93122239D02*
X154333519Y-93139614D01*
X154296634Y-93114293D02*
X154328686Y-93122239D01*
X154222451Y-93112095D02*
X154296634Y-93114293D01*
X154164917Y-93111989D02*
X154222451Y-93112095D01*
X154111584Y-93111803D02*
X154164917Y-93111989D01*
X154039730Y-93109500D02*
X154111584Y-93111803D01*
X154004985Y-93102857D02*
X154039730Y-93109500D01*
X153996181Y-93089752D02*
X154004985Y-93102857D01*
X153998037Y-93080107D02*
X153996181Y-93089752D01*
X154006591Y-93050539D02*
X153998037Y-93080107D01*
X154032178Y-92958273D02*
X154006591Y-93050539D01*
X154059988Y-92855437D02*
X154032178Y-92958273D01*
X154079134Y-92782360D02*
X154059988Y-92855437D01*
X154082028Y-92769589D02*
X154079134Y-92782360D01*
X154077474Y-92767671D02*
X154082028Y-92769589D01*
X154046693Y-92767476D02*
X154077474Y-92767671D01*
X154024251Y-92769222D02*
X154046693Y-92767476D01*
X154005341Y-92771569D02*
X154024251Y-92769222D01*
X153978133Y-92783965D02*
X154005341Y-92771569D01*
X153957064Y-92820528D02*
X153978133Y-92783965D01*
X153932525Y-92897918D02*
X153957064Y-92820528D01*
X153915959Y-92957127D02*
X153932525Y-92897918D01*
X153895520Y-93031106D02*
X153915959Y-92957127D01*
X153869459Y-93126202D02*
X153895520Y-93031106D01*
X153858097Y-93168357D02*
X153869459Y-93126202D01*
X153854968Y-93180315D02*
X153858097Y-93168357D01*
X151423878Y-93221309D02*
X151565391Y-92998118D01*
X151484811Y-93221309D02*
X151423878Y-93221309D01*
X151520400Y-93217573D02*
X151484811Y-93221309D01*
X151565868Y-93182064D02*
X151520400Y-93217573D01*
X151606616Y-93123595D02*
X151565868Y-93182064D01*
X151634156Y-93080107D02*
X151606616Y-93123595D01*
X151658663Y-93041479D02*
X151634156Y-93080107D01*
X151694347Y-92989224D02*
X151658663Y-93041479D01*
X151715502Y-92966920D02*
X151694347Y-92989224D01*
X151726023Y-92970460D02*
X151715502Y-92966920D01*
X151728508Y-92980637D02*
X151726023Y-92970460D01*
X151727877Y-93001817D02*
X151728508Y-92980637D01*
X151711210Y-93057635D02*
X151727877Y-93001817D01*
X151697249Y-93085399D02*
X151711210Y-93057635D01*
X151660051Y-93148429D02*
X151697249Y-93085399D01*
X151704991Y-93148429D02*
X151660051Y-93148429D01*
X151725840Y-93150388D02*
X151704991Y-93148429D01*
X151747515Y-93167963D02*
X151725840Y-93150388D01*
X151749922Y-93184870D02*
X151747515Y-93167963D01*
X151752634Y-93203008D02*
X151749922Y-93184870D01*
X151781949Y-93219763D02*
X151752634Y-93203008D01*
X151813689Y-93221309D02*
X151781949Y-93219763D01*
X151839347Y-93219703D02*
X151813689Y-93221309D01*
X151872723Y-93208332D02*
X151839347Y-93219703D01*
X151877460Y-93199601D02*
X151872723Y-93208332D01*
X151877033Y-93191018D02*
X151877460Y-93199601D01*
X151873861Y-93152018D02*
X151877033Y-93191018D01*
X151864617Y-93053000D02*
X151873861Y-93152018D01*
X151856473Y-92970921D02*
X151864617Y-93053000D01*
X151835490Y-92763949D02*
X151856473Y-92970921D01*
X151771195Y-92769442D02*
X151835490Y-92763949D01*
X151750396Y-92772105D02*
X151771195Y-92769442D01*
X151714637Y-92788492D02*
X151750396Y-92772105D01*
X151673234Y-92834493D02*
X151714637Y-92788492D01*
X151628810Y-92899176D02*
X151673234Y-92834493D01*
X151589064Y-92960866D02*
X151628810Y-92899176D01*
X151565391Y-92998118D02*
X151589064Y-92960866D01*
X153439965Y-93198543D02*
X153405034Y-93166569D01*
X153497955Y-93218204D02*
X153439965Y-93198543D01*
X153568238Y-93219043D02*
X153497955Y-93218204D01*
X153620041Y-93217472D02*
X153568238Y-93219043D01*
X153671725Y-93215622D02*
X153620041Y-93217472D01*
X153739675Y-93210663D02*
X153671725Y-93215622D01*
X153781742Y-93190792D02*
X153739675Y-93210663D01*
X153792234Y-93162093D02*
X153781742Y-93190792D01*
X153805584Y-93111989D02*
X153792234Y-93162093D01*
X153671821Y-93111989D02*
X153805584Y-93111989D01*
X153621857Y-93110838D02*
X153671821Y-93111989D01*
X153547462Y-93100649D02*
X153621857Y-93110838D01*
X153502884Y-93077761D02*
X153547462Y-93100649D01*
X153483025Y-93039571D02*
X153502884Y-93077761D01*
X153480786Y-93013920D02*
X153483025Y-93039571D01*
X153490914Y-92974491D02*
X153480786Y-93013920D01*
X153554063Y-92903085D02*
X153490914Y-92974491D01*
X153595155Y-92884572D02*
X153554063Y-92903085D01*
X153620126Y-92880621D02*
X153595155Y-92884572D01*
X153704144Y-92873224D02*
X153620126Y-92880621D01*
X153752839Y-92870686D02*
X153704144Y-92873224D01*
X153789754Y-92869008D02*
X153752839Y-92870686D01*
X153839524Y-92863915D02*
X153789754Y-92869008D01*
X153873230Y-92843859D02*
X153839524Y-92863915D01*
X153883350Y-92815919D02*
X153873230Y-92843859D01*
X153896685Y-92765812D02*
X153883350Y-92815919D01*
X153738841Y-92765889D02*
X153896685Y-92765812D01*
X153696046Y-92766285D02*
X153738841Y-92765889D01*
X153628426Y-92769780D02*
X153696046Y-92766285D01*
X153558956Y-92783860D02*
X153628426Y-92769780D01*
X153523895Y-92800773D02*
X153558956Y-92783860D01*
X153465784Y-92846044D02*
X153523895Y-92800773D01*
X153380844Y-92967867D02*
X153465784Y-92846044D01*
X153361001Y-93034377D02*
X153380844Y-92967867D01*
X153356144Y-93076811D02*
X153361001Y-93034377D01*
X153375252Y-93134189D02*
X153356144Y-93076811D01*
X153405034Y-93166569D02*
X153375252Y-93134189D01*
X152041895Y-93208299D02*
X152016949Y-93200667D01*
X152140111Y-93218998D02*
X152041895Y-93208299D01*
X152201310Y-93220754D02*
X152140111Y-93218998D01*
X152249574Y-93220774D02*
X152201310Y-93220754D01*
X152313966Y-93218250D02*
X152249574Y-93220774D01*
X152356715Y-93200859D02*
X152313966Y-93218250D01*
X152369843Y-93174569D02*
X152356715Y-93200859D01*
X152382390Y-93139239D02*
X152369843Y-93174569D01*
X152387613Y-93119917D02*
X152382390Y-93139239D01*
X152377297Y-93116834D02*
X152387613Y-93119917D01*
X152307683Y-93112617D02*
X152377297Y-93116834D01*
X152256951Y-93111989D02*
X152307683Y-93112617D01*
X152189968Y-93108609D02*
X152256951Y-93111989D01*
X152096230Y-93082870D02*
X152189968Y-93108609D01*
X152058505Y-93034770D02*
X152096230Y-93082870D01*
X152079522Y-92967829D02*
X152058505Y-93034770D01*
X152112911Y-92928390D02*
X152079522Y-92967829D01*
X152145902Y-92898948D02*
X152112911Y-92928390D01*
X152202313Y-92878780D02*
X152145902Y-92898948D01*
X152267042Y-92875367D02*
X152202313Y-92878780D01*
X152313333Y-92875139D02*
X152267042Y-92875367D01*
X152352626Y-92874856D02*
X152313333Y-92875139D01*
X152410381Y-92872279D02*
X152352626Y-92874856D01*
X152453653Y-92861847D02*
X152410381Y-92872279D01*
X152460489Y-92849299D02*
X152453653Y-92861847D01*
X152463737Y-92822587D02*
X152460489Y-92849299D01*
X152471544Y-92794639D02*
X152463737Y-92822587D01*
X152473588Y-92786245D02*
X152471544Y-92794639D01*
X152465291Y-92774574D02*
X152473588Y-92786245D01*
X152433715Y-92768367D02*
X152465291Y-92774574D01*
X152370721Y-92766035D02*
X152433715Y-92768367D01*
X152324889Y-92765812D02*
X152370721Y-92766035D01*
X152264330Y-92766870D02*
X152324889Y-92765812D01*
X152170030Y-92776977D02*
X152264330Y-92766870D01*
X152100939Y-92801485D02*
X152170030Y-92776977D01*
X152044448Y-92844865D02*
X152100939Y-92801485D01*
X152016974Y-92875047D02*
X152044448Y-92844865D01*
X151986175Y-92918826D02*
X152016974Y-92875047D01*
X151950964Y-93012711D02*
X151986175Y-92918826D01*
X151950958Y-93103080D02*
X151950964Y-93012711D01*
X151986155Y-93175594D02*
X151950958Y-93103080D01*
X152016949Y-93200667D02*
X151986155Y-93175594D01*
X154441134Y-93203238D02*
X154418331Y-93184027D01*
X154494773Y-93217877D02*
X154441134Y-93203238D01*
X154557267Y-93221001D02*
X154494773Y-93217877D01*
X154600061Y-93221309D02*
X154557267Y-93221001D01*
X154672805Y-93219991D02*
X154600061Y-93221309D01*
X154774396Y-93201180D02*
X154672805Y-93219991D01*
X154837095Y-93142383D02*
X154774396Y-93201180D01*
X154872777Y-93058750D02*
X154837095Y-93142383D01*
X154896677Y-92979002D02*
X154872777Y-93058750D01*
X154909775Y-92930873D02*
X154896677Y-92979002D01*
X154953947Y-92765812D02*
X154909775Y-92930873D01*
X154895395Y-92765812D02*
X154953947Y-92765812D01*
X154876014Y-92766155D02*
X154895395Y-92765812D01*
X154848796Y-92774777D02*
X154876014Y-92766155D01*
X154828975Y-92807073D02*
X154848796Y-92774777D01*
X154806871Y-92878792D02*
X154828975Y-92807073D01*
X154791951Y-92934347D02*
X154806871Y-92878792D01*
X154747042Y-93102876D02*
X154791951Y-92934347D01*
X154633175Y-93108302D02*
X154747042Y-93102876D01*
X154589852Y-93110266D02*
X154633175Y-93108302D01*
X154537041Y-93105284D02*
X154589852Y-93110266D01*
X154522677Y-93073861D02*
X154537041Y-93105284D01*
X154538770Y-92998514D02*
X154522677Y-93073861D01*
X154555748Y-92938911D02*
X154538770Y-92998514D01*
X154571236Y-92883858D02*
X154555748Y-92938911D01*
X154587965Y-92811260D02*
X154571236Y-92883858D01*
X154584488Y-92776859D02*
X154587965Y-92811260D01*
X154559354Y-92766458D02*
X154584488Y-92776859D01*
X154538226Y-92765812D02*
X154559354Y-92766458D01*
X154509349Y-92768116D02*
X154538226Y-92765812D01*
X154477593Y-92798337D02*
X154509349Y-92768116D01*
X154466422Y-92834143D02*
X154477593Y-92798337D01*
X154456974Y-92870310D02*
X154466422Y-92834143D01*
X154430416Y-92971787D02*
X154456974Y-92870310D01*
X154416589Y-93024607D02*
X154430416Y-92971787D01*
X154406475Y-93063816D02*
X154416589Y-93024607D01*
X154394995Y-93117354D02*
X154406475Y-93063816D01*
X154399988Y-93160512D02*
X154394995Y-93117354D01*
X154418331Y-93184027D02*
X154399988Y-93160512D01*
X154923956Y-93211459D02*
X154920132Y-93208976D01*
X154952226Y-93215864D02*
X154923956Y-93211459D01*
X155034685Y-93220333D02*
X154952226Y-93215864D01*
X155107387Y-93221309D02*
X155034685Y-93220333D01*
X155156187Y-93220959D02*
X155107387Y-93221309D01*
X155233073Y-93217921D02*
X155156187Y-93220959D01*
X155306532Y-93206293D02*
X155233073Y-93217921D01*
X155335238Y-93192875D02*
X155306532Y-93206293D01*
X155372396Y-93156805D02*
X155335238Y-93192875D01*
X155414985Y-93084539D02*
X155372396Y-93156805D01*
X155426570Y-93039530D02*
X155414985Y-93084539D01*
X155425270Y-93021881D02*
X155426570Y-93039530D01*
X155426789Y-92989882D02*
X155425270Y-93021881D01*
X155441918Y-92956757D02*
X155426789Y-92989882D01*
X155462066Y-92911344D02*
X155441918Y-92956757D01*
X155463193Y-92835470D02*
X155462066Y-92911344D01*
X155445555Y-92796426D02*
X155463193Y-92835470D01*
X155431490Y-92784683D02*
X155445555Y-92796426D01*
X155420712Y-92780886D02*
X155431490Y-92784683D01*
X155380784Y-92774154D02*
X155420712Y-92780886D01*
X155288262Y-92767302D02*
X155380784Y-92774154D01*
X155215180Y-92765812D02*
X155288262Y-92767302D01*
X155034138Y-92765812D02*
X155215180Y-92765812D01*
X154977137Y-92981238D02*
X155034138Y-92765812D01*
X154955002Y-93065846D02*
X154977137Y-92981238D01*
X154929897Y-93165179D02*
X154955002Y-93065846D01*
X154921300Y-93202104D02*
X154929897Y-93165179D01*
X154920132Y-93208976D02*
X154921300Y-93202104D01*
X151349089Y-96008903D02*
X151349089Y-94851962D01*
X151658818Y-96008903D02*
X151349089Y-96008903D01*
X151968565Y-96008903D02*
X151658818Y-96008903D01*
X151968565Y-94851962D02*
X151968565Y-96008903D01*
X151968565Y-93695018D02*
X151968565Y-94851962D01*
X151658818Y-93695018D02*
X151968565Y-93695018D01*
X151349089Y-93695018D02*
X151658818Y-93695018D01*
X151349089Y-94851962D02*
X151349089Y-93695018D01*
X137070926Y-94013321D02*
X137058693Y-93909214D01*
X137093858Y-93900943D02*
X137070926Y-94013321D01*
X137110908Y-93831062D02*
X137093858Y-93900943D01*
X137160278Y-93696100D02*
X137110908Y-93831062D01*
X137228406Y-93569207D02*
X137160278Y-93696100D01*
X137313405Y-93452382D02*
X137228406Y-93569207D01*
X137413362Y-93347620D02*
X137313405Y-93452382D01*
X137526355Y-93256898D02*
X137413362Y-93347620D01*
X137650527Y-93182228D02*
X137526355Y-93256898D01*
X137783946Y-93125598D02*
X137650527Y-93182228D01*
X137853538Y-93104664D02*
X137783946Y-93125598D01*
X137904622Y-93093992D02*
X137853538Y-93104664D01*
X138047881Y-93074438D02*
X137904622Y-93093992D01*
X138122400Y-93067974D02*
X138047881Y-93074438D01*
X138138256Y-93067317D02*
X138122400Y-93067974D01*
X138210679Y-93065700D02*
X138138256Y-93067317D01*
X138335025Y-93063663D02*
X138210679Y-93065700D01*
X138508453Y-93061251D02*
X138335025Y-93063663D01*
X138728143Y-93058497D02*
X138508453Y-93061251D01*
X138991246Y-93055417D02*
X138728143Y-93058497D01*
X139294913Y-93052050D02*
X138991246Y-93055417D01*
X139636315Y-93048427D02*
X139294913Y-93052050D01*
X140012603Y-93044559D02*
X139636315Y-93048427D01*
X140420949Y-93040491D02*
X140012603Y-93044559D01*
X140858508Y-93036257D02*
X140420949Y-93040491D01*
X141322442Y-93031875D02*
X140858508Y-93036257D01*
X141809914Y-93027376D02*
X141322442Y-93031875D01*
X142318087Y-93022791D02*
X141809914Y-93027376D01*
X143112918Y-93015819D02*
X142318087Y-93022791D01*
X143660405Y-93011142D02*
X143112918Y-93015819D01*
X144207233Y-93006512D02*
X143660405Y-93011142D01*
X144998724Y-92999729D02*
X144207233Y-93006512D01*
X145503173Y-92995351D02*
X144998724Y-92999729D01*
X145985822Y-92991127D02*
X145503173Y-92995351D01*
X146443882Y-92987080D02*
X145985822Y-92991127D01*
X146874597Y-92983229D02*
X146443882Y-92987080D01*
X147275172Y-92979610D02*
X146874597Y-92983229D01*
X147642856Y-92976239D02*
X147275172Y-92979610D01*
X147974847Y-92973126D02*
X147642856Y-92976239D01*
X148268406Y-92970342D02*
X147974847Y-92973126D01*
X148520725Y-92967862D02*
X148268406Y-92970342D01*
X148729057Y-92965750D02*
X148520725Y-92967862D01*
X148890606Y-92964016D02*
X148729057Y-92965750D01*
X149002604Y-92962683D02*
X148890606Y-92964016D01*
X149062282Y-92961783D02*
X149002604Y-92962683D01*
X149071637Y-92961490D02*
X149062282Y-92961783D01*
X149067329Y-92961219D02*
X149071637Y-92961490D01*
X149019702Y-92960347D02*
X149067329Y-92961219D01*
X148922236Y-92959073D02*
X149019702Y-92960347D01*
X148777499Y-92957432D02*
X148922236Y-92959073D01*
X148588089Y-92955430D02*
X148777499Y-92957432D01*
X148356585Y-92953100D02*
X148588089Y-92955430D01*
X148085557Y-92950482D02*
X148356585Y-92953100D01*
X147777611Y-92947561D02*
X148085557Y-92950482D01*
X147435305Y-92944406D02*
X147777611Y-92947561D01*
X147061247Y-92941012D02*
X147435305Y-92944406D01*
X146657998Y-92937411D02*
X147061247Y-92941012D01*
X146228151Y-92933617D02*
X146657998Y-92937411D01*
X145774285Y-92929670D02*
X146228151Y-92933617D01*
X145298985Y-92925580D02*
X145774285Y-92929670D01*
X144551495Y-92919253D02*
X145298985Y-92925580D01*
X144033911Y-92914933D02*
X144551495Y-92919253D01*
X143780444Y-92912826D02*
X144033911Y-92914933D01*
X143294721Y-92908764D02*
X143780444Y-92912826D01*
X142836608Y-92904886D02*
X143294721Y-92908764D01*
X142405271Y-92901193D02*
X142836608Y-92904886D01*
X141999894Y-92897662D02*
X142405271Y-92901193D01*
X141619643Y-92894282D02*
X141999894Y-92897662D01*
X141263674Y-92891041D02*
X141619643Y-92894282D01*
X140931183Y-92887908D02*
X141263674Y-92891041D01*
X140621319Y-92884900D02*
X140931183Y-92887908D01*
X140333273Y-92881980D02*
X140621319Y-92884900D01*
X140066217Y-92879132D02*
X140333273Y-92881980D01*
X139819307Y-92876363D02*
X140066217Y-92879132D01*
X139484920Y-92872291D02*
X139819307Y-92876363D01*
X139101877Y-92866967D02*
X139484920Y-92872291D01*
X138784541Y-92861664D02*
X139101877Y-92866967D01*
X138526282Y-92856265D02*
X138784541Y-92861664D01*
X138320478Y-92850657D02*
X138526282Y-92856265D01*
X138160515Y-92844734D02*
X138320478Y-92850657D01*
X138039746Y-92838393D02*
X138160515Y-92844734D01*
X137951552Y-92831500D02*
X138039746Y-92838393D01*
X137865861Y-92819924D02*
X137951552Y-92831500D01*
X137830121Y-92811212D02*
X137865861Y-92819924D01*
X137762678Y-92787957D02*
X137830121Y-92811212D01*
X137633593Y-92727984D02*
X137762678Y-92787957D01*
X137457641Y-92607756D02*
X137633593Y-92727984D01*
X137264972Y-92400542D02*
X137457641Y-92607756D01*
X137159319Y-92217919D02*
X137264972Y-92400542D01*
X137110560Y-92086635D02*
X137159319Y-92217919D01*
X137093329Y-92018818D02*
X137110560Y-92086635D01*
X137085558Y-91983248D02*
X137093329Y-92018818D01*
X137074912Y-91939658D02*
X137085558Y-91983248D01*
X137069212Y-91930207D02*
X137074912Y-91939658D01*
X137066616Y-91951796D02*
X137069212Y-91930207D01*
X137065872Y-91973260D02*
X137066616Y-91951796D01*
X137061993Y-92014242D02*
X137065872Y-91973260D01*
X137038626Y-92114828D02*
X137061993Y-92014242D01*
X136974141Y-92285126D02*
X137038626Y-92114828D01*
X136918936Y-92390587D02*
X136974141Y-92285126D01*
X136861176Y-92474215D02*
X136918936Y-92390587D01*
X136711694Y-92630336D02*
X136861176Y-92474215D01*
X136530967Y-92761434D02*
X136711694Y-92630336D01*
X136335891Y-92855254D02*
X136530967Y-92761434D01*
X136238241Y-92884366D02*
X136335891Y-92855254D01*
X136210953Y-92889802D02*
X136238241Y-92884366D01*
X136134497Y-92900761D02*
X136210953Y-92889802D01*
X135975816Y-92916671D02*
X136134497Y-92900761D01*
X135570743Y-92941703D02*
X135975816Y-92916671D01*
X135297597Y-92949101D02*
X135570743Y-92941703D01*
X135224760Y-92950325D02*
X135297597Y-92949101D01*
X135147132Y-92953546D02*
X135224760Y-92950325D01*
X135124758Y-92956210D02*
X135147132Y-92953546D01*
X135124511Y-92957592D02*
X135124758Y-92956210D01*
X135137839Y-92959331D02*
X135124511Y-92957592D01*
X135215863Y-92964673D02*
X135137839Y-92959331D01*
X135348940Y-92971771D02*
X135215863Y-92964673D01*
X135520909Y-92979777D02*
X135348940Y-92971771D01*
X135616447Y-92983837D02*
X135520909Y-92979777D01*
X135711353Y-92987957D02*
X135616447Y-92983837D01*
X135876334Y-92996640D02*
X135711353Y-92987957D01*
X136012430Y-93006575D02*
X135876334Y-92996640D01*
X136124745Y-93018568D02*
X136012430Y-93006575D01*
X136259804Y-93042206D02*
X136124745Y-93018568D01*
X136404291Y-93088492D02*
X136259804Y-93042206D01*
X136472766Y-93119790D02*
X136404291Y-93088492D01*
X136582856Y-93183814D02*
X136472766Y-93119790D01*
X136780911Y-93354323D02*
X136582856Y-93183814D01*
X136936876Y-93564436D02*
X136780911Y-93354323D01*
X137035558Y-93793742D02*
X136936876Y-93564436D01*
X137058693Y-93909214D02*
X137035558Y-93793742D01*
X142549377Y-96008903D02*
X142544639Y-95166253D01*
X142858931Y-96008903D02*
X142549377Y-96008903D01*
X143168474Y-96008903D02*
X142858931Y-96008903D01*
X143168474Y-95161697D02*
X143168474Y-96008903D01*
X143168474Y-94314486D02*
X143168474Y-95161697D01*
X143851718Y-94314486D02*
X143168474Y-94314486D01*
X144534952Y-94314486D02*
X143851718Y-94314486D01*
X144534952Y-94004751D02*
X144534952Y-94314486D01*
X144534952Y-93695018D02*
X144534952Y-94004751D01*
X142849636Y-93695018D02*
X144534952Y-93695018D01*
X141164324Y-93695018D02*
X142849636Y-93695018D01*
X141164324Y-94004536D02*
X141164324Y-93695018D01*
X141164324Y-94314045D02*
X141164324Y-94004536D01*
X141852110Y-94318819D02*
X141164324Y-94314045D01*
X142539896Y-94323597D02*
X141852110Y-94318819D01*
X142544639Y-95166253D02*
X142539896Y-94323597D01*
X144231267Y-95992186D02*
X144229911Y-95986134D01*
X144260843Y-96001112D02*
X144231267Y-95992186D01*
X144334475Y-96006364D02*
X144260843Y-96001112D01*
X144462093Y-96008658D02*
X144334475Y-96006364D01*
X144549236Y-96008903D02*
X144462093Y-96008658D01*
X144877149Y-96008903D02*
X144549236Y-96008903D01*
X144952035Y-95803942D02*
X144877149Y-96008903D01*
X144960870Y-95779745D02*
X144952035Y-95803942D01*
X144984731Y-95714365D02*
X144960870Y-95779745D01*
X145033641Y-95580253D02*
X144984731Y-95714365D01*
X145163099Y-95225053D02*
X145033641Y-95580253D01*
X145259200Y-94961273D02*
X145163099Y-95225053D01*
X145491484Y-94323597D02*
X145259200Y-94961273D01*
X145896864Y-94318692D02*
X145491484Y-94323597D01*
X145978302Y-94317833D02*
X145896864Y-94318692D01*
X146123115Y-94317026D02*
X145978302Y-94317833D01*
X146232778Y-94317384D02*
X146123115Y-94317026D01*
X146293975Y-94318866D02*
X146232778Y-94317384D01*
X146302253Y-94320019D02*
X146293975Y-94318866D01*
X146304486Y-94327350D02*
X146302253Y-94320019D01*
X146320985Y-94374567D02*
X146304486Y-94327350D01*
X146350561Y-94456848D02*
X146320985Y-94374567D01*
X146389609Y-94564239D02*
X146350561Y-94456848D01*
X146411567Y-94624215D02*
X146389609Y-94564239D01*
X146433527Y-94684561D02*
X146411567Y-94624215D01*
X146472579Y-94794602D02*
X146433527Y-94684561D01*
X146502151Y-94881640D02*
X146472579Y-94794602D01*
X146518655Y-94935139D02*
X146502151Y-94881640D01*
X146520887Y-94946007D02*
X146518655Y-94935139D01*
X146515571Y-94952514D02*
X146520887Y-94946007D01*
X146466152Y-94962377D02*
X146515571Y-94952514D01*
X146386049Y-94967523D02*
X146466152Y-94962377D01*
X146307823Y-94970124D02*
X146386049Y-94967523D01*
X146207056Y-94972219D02*
X146307823Y-94970124D01*
X146081424Y-94973915D02*
X146207056Y-94972219D01*
X146008568Y-94974662D02*
X146081424Y-94973915D01*
X145496247Y-94979494D02*
X146008568Y-94974662D01*
X145389099Y-95269197D02*
X145496247Y-94979494D01*
X145367579Y-95327712D02*
X145389099Y-95269197D01*
X145329298Y-95433525D02*
X145367579Y-95327712D01*
X145300318Y-95516088D02*
X145329298Y-95433525D01*
X145284140Y-95565353D02*
X145300318Y-95516088D01*
X145281951Y-95574376D02*
X145284140Y-95565353D01*
X145285810Y-95575954D02*
X145281951Y-95574376D01*
X145315477Y-95578966D02*
X145285810Y-95575954D01*
X145371906Y-95581739D02*
X145315477Y-95578966D01*
X145452040Y-95584216D02*
X145371906Y-95581739D01*
X145610039Y-95587210D02*
X145452040Y-95584216D01*
X145875258Y-95589551D02*
X145610039Y-95587210D01*
X146024399Y-95589868D02*
X145875258Y-95589551D01*
X146766858Y-95589879D02*
X146024399Y-95589868D01*
X146839380Y-95799404D02*
X146766858Y-95589879D01*
X146911904Y-96008903D02*
X146839380Y-95799404D01*
X147245839Y-96008903D02*
X146911904Y-96008903D01*
X147312761Y-96008630D02*
X147245839Y-96008903D01*
X147430896Y-96006571D02*
X147312761Y-96008630D01*
X147519140Y-96002870D02*
X147430896Y-96006571D01*
X147566798Y-95997987D02*
X147519140Y-96002870D01*
X147572062Y-95995235D02*
X147566798Y-95997987D01*
X147569128Y-95987923D02*
X147572062Y-95995235D01*
X147551052Y-95939567D02*
X147569128Y-95987923D01*
X147518144Y-95850238D02*
X147551052Y-95939567D01*
X147472148Y-95724651D02*
X147518144Y-95850238D01*
X147414785Y-95567582D02*
X147472148Y-95724651D01*
X147347797Y-95383754D02*
X147414785Y-95567582D01*
X147233046Y-95068242D02*
X147347797Y-95383754D01*
X147149574Y-94838303D02*
X147233046Y-95068242D01*
X146734793Y-93695018D02*
X147149574Y-94838303D01*
X145901008Y-93695018D02*
X146734793Y-93695018D01*
X145763550Y-93695049D02*
X145901008Y-93695018D01*
X145535295Y-93695415D02*
X145763550Y-93695049D01*
X145362671Y-93696426D02*
X145535295Y-93695415D01*
X145237794Y-93698392D02*
X145362671Y-93696426D01*
X145152758Y-93701596D02*
X145237794Y-93698392D01*
X145099664Y-93706341D02*
X145152758Y-93701596D01*
X145062629Y-93717002D02*
X145099664Y-93706341D01*
X145054840Y-93726904D02*
X145062629Y-93717002D01*
X145051490Y-93735868D02*
X145054840Y-93726904D01*
X145033015Y-93786129D02*
X145051490Y-93735868D01*
X145000247Y-93875616D02*
X145033015Y-93786129D01*
X144954883Y-93999675D02*
X145000247Y-93875616D01*
X144898636Y-94153655D02*
X144954883Y-93999675D01*
X144833184Y-94332912D02*
X144898636Y-94153655D01*
X144721487Y-94639001D02*
X144833184Y-94332912D01*
X144640488Y-94861071D02*
X144721487Y-94639001D01*
X144559563Y-95082969D02*
X144640488Y-94861071D01*
X144448238Y-95388131D02*
X144559563Y-95082969D01*
X144383196Y-95566395D02*
X144448238Y-95388131D01*
X144327462Y-95719148D02*
X144383196Y-95566395D01*
X144282700Y-95841760D02*
X144327462Y-95719148D01*
X144250613Y-95929610D02*
X144282700Y-95841760D01*
X144232878Y-95978095D02*
X144250613Y-95929610D01*
X144229911Y-95986134D02*
X144232878Y-95978095D01*
X147705156Y-96009787D02*
X147705156Y-95699621D01*
X149103512Y-96004791D02*
X147705156Y-96009787D01*
X150501877Y-95999793D02*
X149103512Y-96004791D01*
X150623581Y-95942140D02*
X150501877Y-95999793D01*
X150684175Y-95910889D02*
X150623581Y-95942140D01*
X150789319Y-95840063D02*
X150684175Y-95910889D01*
X150876164Y-95755029D02*
X150789319Y-95840063D01*
X150948500Y-95652112D02*
X150876164Y-95755029D01*
X150980421Y-95592774D02*
X150948500Y-95652112D01*
X151001999Y-95548429D02*
X150980421Y-95592774D01*
X151030505Y-95479590D02*
X151001999Y-95548429D01*
X151044067Y-95415548D02*
X151030505Y-95479590D01*
X151048205Y-95330294D02*
X151044067Y-95415548D01*
X151048463Y-95271573D02*
X151048205Y-95330294D01*
X151048172Y-95214251D02*
X151048463Y-95271573D01*
X151044216Y-95130105D02*
X151048172Y-95214251D01*
X151032154Y-95068131D02*
X151044216Y-95130105D01*
X151007659Y-95006087D02*
X151032154Y-95068131D01*
X150989410Y-94968092D02*
X151007659Y-95006087D01*
X150959288Y-94913314D02*
X150989410Y-94968092D01*
X150884603Y-94812160D02*
X150959288Y-94913314D01*
X150792205Y-94723662D02*
X150884603Y-94812160D01*
X150683910Y-94649573D02*
X150792205Y-94723662D01*
X150624375Y-94618477D02*
X150683910Y-94649573D01*
X150501877Y-94560454D02*
X150624375Y-94618477D01*
X149439103Y-94551345D02*
X150501877Y-94560454D01*
X149344874Y-94550531D02*
X149439103Y-94551345D01*
X149173415Y-94549014D02*
X149344874Y-94550531D01*
X149023398Y-94547583D02*
X149173415Y-94549014D01*
X148893342Y-94546183D02*
X149023398Y-94547583D01*
X148732452Y-94543997D02*
X148893342Y-94546183D01*
X148574016Y-94540605D02*
X148732452Y-94543997D01*
X148468854Y-94536209D02*
X148574016Y-94540605D01*
X148405137Y-94530309D02*
X148468854Y-94536209D01*
X148361445Y-94517585D02*
X148405137Y-94530309D01*
X148349678Y-94505789D02*
X148361445Y-94517585D01*
X148337253Y-94484021D02*
X148349678Y-94505789D01*
X148327148Y-94435902D02*
X148337253Y-94484021D01*
X148335479Y-94388687D02*
X148327148Y-94435902D01*
X148360758Y-94350780D02*
X148335479Y-94388687D01*
X148379295Y-94337944D02*
X148360758Y-94350780D01*
X148389193Y-94334757D02*
X148379295Y-94337944D01*
X148430613Y-94329221D02*
X148389193Y-94334757D01*
X148505198Y-94324729D02*
X148430613Y-94329221D01*
X148618164Y-94321201D02*
X148505198Y-94324729D01*
X148774719Y-94318532D02*
X148618164Y-94321201D01*
X148980093Y-94316646D02*
X148774719Y-94318532D01*
X149239460Y-94315449D02*
X148980093Y-94316646D01*
X149558062Y-94314852D02*
X149239460Y-94315449D01*
X149741209Y-94314755D02*
X149558062Y-94314852D01*
X151057577Y-94314486D02*
X149741209Y-94314755D01*
X151057577Y-94004751D02*
X151057577Y-94314486D01*
X151057577Y-93695018D02*
X151057577Y-94004751D01*
X149759429Y-93695381D02*
X151057577Y-93695018D01*
X149619702Y-93695503D02*
X149759429Y-93695381D01*
X149353715Y-93696253D02*
X149619702Y-93695503D01*
X149109181Y-93697618D02*
X149353715Y-93696253D01*
X148890366Y-93699544D02*
X149109181Y-93697618D01*
X148701449Y-93701985D02*
X148890366Y-93699544D01*
X148546697Y-93704872D02*
X148701449Y-93701985D01*
X148430303Y-93708157D02*
X148546697Y-93704872D01*
X148356509Y-93711797D02*
X148430303Y-93708157D01*
X148336902Y-93713726D02*
X148356509Y-93711797D01*
X148246819Y-93732415D02*
X148336902Y-93713726D01*
X148080408Y-93800661D02*
X148246819Y-93732415D01*
X147936412Y-93907067D02*
X148080408Y-93800661D01*
X147819758Y-94048009D02*
X147936412Y-93907067D01*
X147773210Y-94130293D02*
X147819758Y-94048009D01*
X147754827Y-94168540D02*
X147773210Y-94130293D01*
X147730317Y-94230810D02*
X147754827Y-94168540D01*
X147718470Y-94293840D02*
X147730317Y-94230810D01*
X147714835Y-94381360D02*
X147718470Y-94293840D01*
X147714708Y-94441705D02*
X147714835Y-94381360D01*
X147715128Y-94500942D02*
X147714708Y-94441705D01*
X147719060Y-94587640D02*
X147715128Y-94500942D01*
X147739914Y-94677755D02*
X147719060Y-94587640D01*
X147769365Y-94742000D02*
X147739914Y-94677755D01*
X147813087Y-94817754D02*
X147769365Y-94742000D01*
X147925723Y-94952392D02*
X147813087Y-94817754D01*
X148064810Y-95059068D02*
X147925723Y-94952392D01*
X148221801Y-95131234D02*
X148064810Y-95059068D01*
X148304342Y-95152329D02*
X148221801Y-95131234D01*
X148319734Y-95154358D02*
X148304342Y-95152329D01*
X148375783Y-95158140D02*
X148319734Y-95154358D01*
X148463332Y-95161514D02*
X148375783Y-95158140D01*
X148579807Y-95164438D02*
X148463332Y-95161514D01*
X148722573Y-95166864D02*
X148579807Y-95164438D01*
X148889033Y-95168751D02*
X148722573Y-95166864D01*
X149177415Y-95170465D02*
X148889033Y-95168751D01*
X149391668Y-95170808D02*
X149177415Y-95170465D01*
X149490333Y-95170795D02*
X149391668Y-95170808D01*
X149668701Y-95170792D02*
X149490333Y-95170795D01*
X149823174Y-95170960D02*
X149668701Y-95170792D01*
X149955502Y-95171473D02*
X149823174Y-95170960D01*
X150116185Y-95173291D02*
X149955502Y-95171473D01*
X150268854Y-95178599D02*
X150116185Y-95173291D01*
X150363688Y-95188531D02*
X150268854Y-95178599D01*
X150414411Y-95204523D02*
X150363688Y-95188531D01*
X150437746Y-95242993D02*
X150414411Y-95204523D01*
X150438108Y-95280401D02*
X150437746Y-95242993D01*
X150437555Y-95317580D02*
X150438108Y-95280401D01*
X150405953Y-95355840D02*
X150437555Y-95317580D01*
X150337576Y-95371751D02*
X150405953Y-95355840D01*
X150248398Y-95379662D02*
X150337576Y-95371751D01*
X150166595Y-95383351D02*
X150248398Y-95379662D01*
X150064241Y-95385981D02*
X150166595Y-95383351D01*
X149939022Y-95387726D02*
X150064241Y-95385981D01*
X149788651Y-95388769D02*
X149939022Y-95387726D01*
X149610836Y-95389286D02*
X149788651Y-95388769D01*
X149403271Y-95389451D02*
X149610836Y-95389286D01*
X149163676Y-95389451D02*
X149403271Y-95389451D01*
X149031145Y-95389436D02*
X149163676Y-95389451D01*
X147705156Y-95389436D02*
X149031145Y-95389436D01*
X147705156Y-95699621D02*
X147705156Y-95389436D01*
X137666152Y-96009787D02*
X137666152Y-95699621D01*
X139064510Y-96004791D02*
X137666152Y-96009787D01*
X140462855Y-95999793D02*
X139064510Y-96004791D01*
X140584564Y-95942140D02*
X140462855Y-95999793D01*
X140645183Y-95910886D02*
X140584564Y-95942140D01*
X140750326Y-95840050D02*
X140645183Y-95910886D01*
X140837168Y-95755011D02*
X140750326Y-95840050D01*
X140909495Y-95652065D02*
X140837168Y-95755011D01*
X140941414Y-95592713D02*
X140909495Y-95652065D01*
X140963011Y-95548302D02*
X140941414Y-95592713D01*
X140991498Y-95479484D02*
X140963011Y-95548302D01*
X141004971Y-95415601D02*
X140991498Y-95479484D01*
X141008941Y-95330539D02*
X141004971Y-95415601D01*
X141009076Y-95271890D02*
X141008941Y-95330539D01*
X141008656Y-95215021D02*
X141009076Y-95271890D01*
X141004490Y-95131076D02*
X141008656Y-95215021D01*
X140982122Y-95039051D02*
X141004490Y-95131076D01*
X140950330Y-94968767D02*
X140982122Y-95039051D01*
X140920496Y-94913963D02*
X140950330Y-94968767D01*
X140846171Y-94812703D02*
X140920496Y-94913963D01*
X140753802Y-94724038D02*
X140846171Y-94812703D01*
X140645187Y-94649721D02*
X140753802Y-94724038D01*
X140585362Y-94618477D02*
X140645187Y-94649721D01*
X140462855Y-94560454D02*
X140585362Y-94618477D01*
X139404352Y-94551345D02*
X140462855Y-94560454D01*
X139297987Y-94550435D02*
X139404352Y-94551345D01*
X139105775Y-94548787D02*
X139297987Y-94550435D01*
X138939372Y-94547205D02*
X139105775Y-94548787D01*
X138796948Y-94545447D02*
X138939372Y-94547205D01*
X138676652Y-94543331D02*
X138796948Y-94545447D01*
X138576668Y-94540646D02*
X138676652Y-94543331D01*
X138460705Y-94535085D02*
X138576668Y-94540646D01*
X138359955Y-94523739D02*
X138460705Y-94535085D01*
X138307255Y-94506376D02*
X138359955Y-94523739D01*
X138286164Y-94465430D02*
X138307255Y-94506376D01*
X138289252Y-94425781D02*
X138286164Y-94465430D01*
X138294200Y-94394239D02*
X138289252Y-94425781D01*
X138318702Y-94352072D02*
X138294200Y-94394239D01*
X138340276Y-94337947D02*
X138318702Y-94352072D01*
X138350173Y-94334761D02*
X138340276Y-94337947D01*
X138391587Y-94329223D02*
X138350173Y-94334761D01*
X138466161Y-94324734D02*
X138391587Y-94329223D01*
X138579116Y-94321201D02*
X138466161Y-94324734D01*
X138735669Y-94318532D02*
X138579116Y-94321201D01*
X138941027Y-94316646D02*
X138735669Y-94318532D01*
X139200410Y-94315449D02*
X138941027Y-94316646D01*
X139519042Y-94314852D02*
X139200410Y-94315449D01*
X139702196Y-94314755D02*
X139519042Y-94314852D01*
X141018561Y-94314486D02*
X139702196Y-94314755D01*
X141018561Y-94004751D02*
X141018561Y-94314486D01*
X141018561Y-93695018D02*
X141018561Y-94004751D01*
X139720418Y-93695381D02*
X141018561Y-93695018D01*
X139580683Y-93695503D02*
X139720418Y-93695381D01*
X139314701Y-93696253D02*
X139580683Y-93695503D01*
X139070171Y-93697618D02*
X139314701Y-93696253D01*
X138851339Y-93699544D02*
X139070171Y-93697618D01*
X138662432Y-93701985D02*
X138851339Y-93699544D01*
X138507672Y-93704872D02*
X138662432Y-93701985D01*
X138391287Y-93708157D02*
X138507672Y-93704872D01*
X138317487Y-93711797D02*
X138391287Y-93708157D01*
X138297876Y-93713726D02*
X138317487Y-93711797D01*
X138207540Y-93732356D02*
X138297876Y-93713726D01*
X138041283Y-93799982D02*
X138207540Y-93732356D01*
X137897982Y-93905365D02*
X138041283Y-93799982D01*
X137782049Y-94045261D02*
X137897982Y-93905365D01*
X137735724Y-94127130D02*
X137782049Y-94045261D01*
X137716794Y-94166412D02*
X137735724Y-94127130D01*
X137691611Y-94229868D02*
X137716794Y-94166412D01*
X137679401Y-94293365D02*
X137691611Y-94229868D01*
X137675526Y-94381108D02*
X137679401Y-94293365D01*
X137675265Y-94441640D02*
X137675526Y-94381108D01*
X137675553Y-94500480D02*
X137675265Y-94441640D01*
X137679278Y-94587004D02*
X137675553Y-94500480D01*
X137699321Y-94676918D02*
X137679278Y-94587004D01*
X137727530Y-94739847D02*
X137699321Y-94676918D01*
X137770537Y-94814999D02*
X137727530Y-94739847D01*
X137883549Y-94949865D02*
X137770537Y-94814999D01*
X138024250Y-95057765D02*
X137883549Y-94949865D01*
X138182634Y-95131060D02*
X138024250Y-95057765D01*
X138265332Y-95152329D02*
X138182634Y-95131060D01*
X138280694Y-95154358D02*
X138265332Y-95152329D01*
X138336591Y-95158139D02*
X138280694Y-95154358D01*
X138423857Y-95161513D02*
X138336591Y-95158139D01*
X138539896Y-95164437D02*
X138423857Y-95161513D01*
X138682087Y-95166862D02*
X138539896Y-95164437D01*
X138847818Y-95168750D02*
X138682087Y-95166862D01*
X139134822Y-95170465D02*
X138847818Y-95168750D01*
X139347958Y-95170808D02*
X139134822Y-95170465D01*
X139446387Y-95170800D02*
X139347958Y-95170808D01*
X139624422Y-95170814D02*
X139446387Y-95170800D01*
X139778797Y-95171013D02*
X139624422Y-95170814D01*
X139911185Y-95171574D02*
X139778797Y-95171013D01*
X140072251Y-95173490D02*
X139911185Y-95171574D01*
X140225816Y-95178975D02*
X140072251Y-95173490D01*
X140321802Y-95189124D02*
X140225816Y-95178975D01*
X140373711Y-95205354D02*
X140321802Y-95189124D01*
X140398402Y-95244235D02*
X140373711Y-95205354D01*
X140399091Y-95281916D02*
X140398402Y-95244235D01*
X140398432Y-95318529D02*
X140399091Y-95281916D01*
X140366405Y-95356222D02*
X140398432Y-95318529D01*
X140297704Y-95371921D02*
X140366405Y-95356222D01*
X140208330Y-95379731D02*
X140297704Y-95371921D01*
X140126452Y-95383379D02*
X140208330Y-95379731D01*
X140024045Y-95385985D02*
X140126452Y-95383379D01*
X139898850Y-95387709D02*
X140024045Y-95385985D01*
X139748582Y-95388758D02*
X139898850Y-95387709D01*
X139570940Y-95389274D02*
X139748582Y-95388758D01*
X139363652Y-95389446D02*
X139570940Y-95389274D01*
X139124435Y-95389451D02*
X139363652Y-95389446D01*
X138992122Y-95389436D02*
X139124435Y-95389451D01*
X137666152Y-95389436D02*
X138992122Y-95389436D01*
X137666152Y-95699621D02*
X137666152Y-95389436D01*
X152260073Y-96009981D02*
X152260073Y-95699724D01*
X153667947Y-96004895D02*
X152260073Y-96009981D01*
X155075811Y-95999793D02*
X153667947Y-96004895D01*
X155194706Y-95941253D02*
X155075811Y-95999793D01*
X155252146Y-95909897D02*
X155194706Y-95941253D01*
X155356561Y-95834699D02*
X155252146Y-95909897D01*
X155445893Y-95745123D02*
X155356561Y-95834699D01*
X155518731Y-95643947D02*
X155445893Y-95745123D01*
X155573707Y-95533940D02*
X155518731Y-95643947D01*
X155609440Y-95417838D02*
X155573707Y-95533940D01*
X155624568Y-95298427D02*
X155609440Y-95417838D01*
X155617682Y-95178450D02*
X155624568Y-95298427D01*
X155605562Y-95119111D02*
X155617682Y-95178450D01*
X155579921Y-95034957D02*
X155605562Y-95119111D01*
X155508849Y-94887354D02*
X155579921Y-95034957D01*
X155409488Y-94765035D02*
X155508849Y-94887354D01*
X155279536Y-94665162D02*
X155409488Y-94765035D01*
X155202365Y-94622749D02*
X155279536Y-94665162D01*
X155075839Y-94560454D02*
X155202365Y-94622749D01*
X154011528Y-94551345D02*
X155075839Y-94560454D01*
X152947210Y-94542234D02*
X154011528Y-94551345D01*
X152910210Y-94492653D02*
X152947210Y-94542234D01*
X152892084Y-94465532D02*
X152910210Y-94492653D01*
X152884950Y-94422274D02*
X152892084Y-94465532D01*
X152894366Y-94396629D02*
X152884950Y-94422274D01*
X152923108Y-94358590D02*
X152894366Y-94396629D01*
X152962487Y-94332340D02*
X152923108Y-94358590D01*
X152973605Y-94330316D02*
X152962487Y-94332340D01*
X153029009Y-94326586D02*
X152973605Y-94330316D01*
X153126747Y-94323299D02*
X153029009Y-94326586D01*
X153264550Y-94320484D02*
X153126747Y-94323299D01*
X153440175Y-94318171D02*
X153264550Y-94320484D01*
X153651358Y-94316398D02*
X153440175Y-94318171D01*
X153895844Y-94315186D02*
X153651358Y-94316398D01*
X154171376Y-94314565D02*
X153895844Y-94315186D01*
X154320074Y-94314486D02*
X154171376Y-94314565D01*
X155630703Y-94314486D02*
X154320074Y-94314486D01*
X155630703Y-94004751D02*
X155630703Y-94314486D01*
X155630703Y-93695018D02*
X155630703Y-94004751D01*
X154332556Y-93695613D02*
X155630703Y-93695018D01*
X154069304Y-93696053D02*
X154332556Y-93695613D01*
X153700349Y-93697800D02*
X154069304Y-93696053D01*
X153480165Y-93699589D02*
X153700349Y-93697800D01*
X153287397Y-93701804D02*
X153480165Y-93699589D01*
X153127870Y-93704372D02*
X153287397Y-93701804D01*
X153007405Y-93707228D02*
X153127870Y-93704372D01*
X152931844Y-93710306D02*
X153007405Y-93707228D01*
X152912711Y-93711904D02*
X152931844Y-93710306D01*
X152851760Y-93722138D02*
X152912711Y-93711904D01*
X152736893Y-93755836D02*
X152851760Y-93722138D01*
X152631442Y-93807210D02*
X152736893Y-93755836D01*
X152535438Y-93876227D02*
X152631442Y-93807210D01*
X152490974Y-93917353D02*
X152535438Y-93876227D01*
X152430105Y-93985397D02*
X152490974Y-93917353D01*
X152336549Y-94134398D02*
X152430105Y-93985397D01*
X152282170Y-94295921D02*
X152336549Y-94134398D01*
X152268851Y-94464320D02*
X152282170Y-94295921D01*
X152278186Y-94549338D02*
X152268851Y-94464320D01*
X152306477Y-94660136D02*
X152278186Y-94549338D01*
X152409420Y-94858542D02*
X152306477Y-94660136D01*
X152564571Y-95016289D02*
X152409420Y-94858542D01*
X152760393Y-95121612D02*
X152564571Y-95016289D01*
X152869952Y-95150961D02*
X152760393Y-95121612D01*
X152886658Y-95153283D02*
X152869952Y-95150961D01*
X152942271Y-95157523D02*
X152886658Y-95153283D01*
X153026757Y-95161217D02*
X152942271Y-95157523D01*
X153139181Y-95164328D02*
X153026757Y-95161217D01*
X153278590Y-95166855D02*
X153139181Y-95164328D01*
X153444101Y-95168775D02*
X153278590Y-95166855D01*
X153634775Y-95170071D02*
X153444101Y-95168775D01*
X153849667Y-95170723D02*
X153634775Y-95170071D01*
X153965921Y-95170808D02*
X153849667Y-95170723D01*
X154954511Y-95170808D02*
X153965921Y-95170808D01*
X154982864Y-95211296D02*
X154954511Y-95170808D01*
X155003861Y-95250282D02*
X154982864Y-95211296D01*
X154999888Y-95320058D02*
X155003861Y-95250282D01*
X154974791Y-95353007D02*
X154999888Y-95320058D01*
X154959339Y-95364840D02*
X154974791Y-95353007D01*
X154904732Y-95377307D02*
X154959339Y-95364840D01*
X154825137Y-95382681D02*
X154904732Y-95377307D01*
X154693185Y-95386178D02*
X154825137Y-95382681D01*
X154550732Y-95387807D02*
X154693185Y-95386178D01*
X154431455Y-95388523D02*
X154550732Y-95387807D01*
X154290532Y-95388987D02*
X154431455Y-95388523D01*
X154126036Y-95389266D02*
X154290532Y-95388987D01*
X153936072Y-95389391D02*
X154126036Y-95389266D01*
X153718745Y-95389436D02*
X153936072Y-95389391D01*
X153599212Y-95389436D02*
X153718745Y-95389436D01*
X152260073Y-95389436D02*
X153599212Y-95389436D01*
X152260073Y-95699724D02*
X152260073Y-95389436D01*
D11*
G36*
X135623647Y-99538978D02*
G01*
X135822400Y-99429710D01*
X135826462Y-99512612D01*
X135845203Y-99574499D01*
X135876402Y-99620581D01*
X135920574Y-99654121D01*
X135980853Y-99675881D01*
X136062460Y-99683967D01*
X136142381Y-99676134D01*
X136213762Y-99653326D01*
X136278432Y-99615548D01*
X136333071Y-99564820D01*
X136370940Y-99506647D01*
X136393562Y-99439510D01*
X136398195Y-99369588D01*
X136382788Y-99299200D01*
X136345101Y-99225810D01*
X136280172Y-99147335D01*
X136179880Y-99046951D01*
X136072720Y-98927015D01*
X136023992Y-98851953D01*
X136007072Y-98803042D01*
X136001549Y-98749560D01*
X136008147Y-98689929D01*
X136032905Y-98609812D01*
X136072084Y-98537313D01*
X136126555Y-98471183D01*
X136198198Y-98410759D01*
X136278181Y-98362755D01*
X136363497Y-98328519D01*
X136455199Y-98307693D01*
X136554579Y-98300575D01*
X136659023Y-98309660D01*
X136754936Y-98336314D01*
X136844098Y-98380534D01*
X136755988Y-98519478D01*
X136717336Y-98580020D01*
X136680732Y-98623600D01*
X136651666Y-98634699D01*
X136623089Y-98622151D01*
X136648137Y-98568753D01*
X136658901Y-98534682D01*
X136659708Y-98494380D01*
X136644855Y-98459136D01*
X136612007Y-98426421D01*
X136569714Y-98403142D01*
X136516177Y-98388113D01*
X136448517Y-98382641D01*
X136356623Y-98391811D01*
X136287389Y-98416711D01*
X136235457Y-98455411D01*
X136197590Y-98508814D01*
X136173194Y-98580478D01*
X136169319Y-98626813D01*
X136177072Y-98671768D01*
X136197008Y-98716673D01*
X136250291Y-98788797D01*
X136372862Y-98920555D01*
X136452913Y-99002712D01*
X136521593Y-99086108D01*
X136561775Y-99166700D01*
X136578034Y-99246619D01*
X136571981Y-99328593D01*
X136544245Y-99417135D01*
X136499464Y-99497968D01*
X136436340Y-99572458D01*
X136352346Y-99641285D01*
X136259318Y-99695660D01*
X136160459Y-99734429D01*
X136054613Y-99757991D01*
X135940369Y-99766032D01*
X135844567Y-99758334D01*
X135770867Y-99737443D01*
X135714540Y-99705509D01*
X135672128Y-99662953D01*
X135641808Y-99608420D01*
X135623647Y-99538978D01*
G37*
G36*
X137481649Y-98749410D02*
G01*
X137513162Y-98773267D01*
X137528265Y-98812992D01*
X137524162Y-98877782D01*
X137501723Y-98948059D01*
X137462179Y-99019989D01*
X137402683Y-99094692D01*
X137319364Y-99172980D01*
X137198751Y-99259333D01*
X137069491Y-99325661D01*
X136930286Y-99372740D01*
X136926849Y-99472010D01*
X136941513Y-99537456D01*
X136969158Y-99579467D01*
X137009481Y-99604511D01*
X137067031Y-99613625D01*
X137127813Y-99606272D01*
X137188933Y-99583590D01*
X137251847Y-99543456D01*
X137317651Y-99482325D01*
X137387050Y-99395455D01*
X137404947Y-99417825D01*
X137407017Y-99441159D01*
X137388154Y-99476610D01*
X137319548Y-99551068D01*
X137202889Y-99649109D01*
X137102244Y-99710889D01*
X137014539Y-99744086D01*
X136936605Y-99754309D01*
X136872163Y-99744540D01*
X136822198Y-99716841D01*
X136783099Y-99670045D01*
X136759382Y-99611962D01*
X136751071Y-99541695D01*
X136760659Y-99455355D01*
X136793391Y-99344311D01*
X136841815Y-99241307D01*
X136961701Y-99241307D01*
X137009054Y-99250191D01*
X137089028Y-99241862D01*
X137165778Y-99216831D01*
X137240779Y-99173988D01*
X137305798Y-99117601D01*
X137347737Y-99058563D01*
X137370381Y-98995660D01*
X137373203Y-98942650D01*
X137359264Y-98909459D01*
X137330041Y-98888946D01*
X137278515Y-98880896D01*
X137225851Y-98890598D01*
X137168293Y-98922483D01*
X137103026Y-98983845D01*
X137048508Y-99055994D01*
X137001293Y-99141220D01*
X136961701Y-99241307D01*
X136841815Y-99241307D01*
X136847590Y-99229024D01*
X136926142Y-99108156D01*
X137032776Y-98980547D01*
X137133186Y-98882325D01*
X137220814Y-98814475D01*
X137297619Y-98771144D01*
X137365618Y-98747551D01*
X137426892Y-98740212D01*
X137481649Y-98749410D01*
G37*
G36*
X138449634Y-98759495D02*
G01*
X138524337Y-98780054D01*
X138512430Y-98804509D01*
X138489990Y-98859830D01*
X138463245Y-98925501D01*
X138004191Y-100376853D01*
X138117855Y-100296619D01*
X138219796Y-100226003D01*
X138269072Y-100196236D01*
X138239122Y-100286819D01*
X138108127Y-100362582D01*
X137958220Y-100463012D01*
X137787120Y-100592001D01*
X138186366Y-99329326D01*
X138085023Y-99443857D01*
X137981987Y-99543965D01*
X137877154Y-99630661D01*
X137763007Y-99706908D01*
X137680073Y-99744014D01*
X137619966Y-99754309D01*
X137575727Y-99746313D01*
X137545699Y-99724133D01*
X137526359Y-99685520D01*
X137519566Y-99622600D01*
X137530521Y-99535721D01*
X137706416Y-99535721D01*
X137713665Y-99572887D01*
X137729773Y-99590966D01*
X137755796Y-99596039D01*
X137806473Y-99583064D01*
X137886286Y-99538550D01*
X138008404Y-99443815D01*
X138115575Y-99341554D01*
X138180595Y-99259534D01*
X138230124Y-99166084D01*
X138284276Y-99019931D01*
X138322287Y-98898756D01*
X138282968Y-98876928D01*
X138231989Y-98862685D01*
X138166215Y-98857449D01*
X138103722Y-98866717D01*
X138039584Y-98895897D01*
X137971694Y-98949183D01*
X137898586Y-99033212D01*
X137839757Y-99123142D01*
X137789228Y-99224413D01*
X137747238Y-99338273D01*
X137714305Y-99466163D01*
X137706416Y-99535721D01*
X137530521Y-99535721D01*
X137532039Y-99523682D01*
X137564575Y-99404878D01*
X137611363Y-99292302D01*
X137672784Y-99185101D01*
X137749647Y-99082614D01*
X137843174Y-98984394D01*
X137949221Y-98895944D01*
X138052274Y-98830900D01*
X138153224Y-98786424D01*
X138253180Y-98760484D01*
X138353428Y-98751936D01*
X138449634Y-98759495D01*
G37*
G36*
X139308814Y-99335646D02*
G01*
X139210601Y-99443436D01*
X139106830Y-99541011D01*
X138997313Y-99628829D01*
X138878367Y-99706761D01*
X138794613Y-99744131D01*
X138736278Y-99754309D01*
X138693768Y-99745983D01*
X138668553Y-99723482D01*
X138656539Y-99683613D01*
X138662273Y-99615731D01*
X138709717Y-99450776D01*
X138815413Y-99115369D01*
X138832724Y-99056110D01*
X138852507Y-98989615D01*
X138866612Y-98936675D01*
X138869384Y-98901302D01*
X138862572Y-98885748D01*
X138848752Y-98880896D01*
X138816819Y-98887771D01*
X138775576Y-98912348D01*
X138721109Y-98963329D01*
X138649358Y-99052355D01*
X138635437Y-99032833D01*
X138633879Y-99014894D01*
X138650559Y-98976031D01*
X138694487Y-98921622D01*
X138780425Y-98845542D01*
X138874340Y-98779341D01*
X138937844Y-98748405D01*
X138980002Y-98740212D01*
X139015584Y-98747332D01*
X139036788Y-98766693D01*
X139046875Y-98801302D01*
X139041734Y-98860563D01*
X139024149Y-98925409D01*
X138998778Y-99004269D01*
X138971942Y-99090365D01*
X138878977Y-99383365D01*
X138839410Y-99534765D01*
X138837546Y-99575574D01*
X138848995Y-99595134D01*
X138873024Y-99601901D01*
X138922963Y-99593579D01*
X138985581Y-99564847D01*
X139065292Y-99507809D01*
X139166756Y-99412124D01*
X139279815Y-99279556D01*
X139360347Y-99154855D01*
X139413136Y-99036509D01*
X139498408Y-98791412D01*
X139680033Y-98732427D01*
X139591372Y-98950139D01*
X139442262Y-99377961D01*
X139420647Y-99443449D01*
X139401962Y-99499777D01*
X139380713Y-99573050D01*
X139380371Y-99605812D01*
X139392803Y-99613625D01*
X139428436Y-99605906D01*
X139473019Y-99578639D01*
X139530399Y-99522505D01*
X139604378Y-99424856D01*
X139625214Y-99445344D01*
X139628284Y-99462042D01*
X139604832Y-99504118D01*
X139510498Y-99607030D01*
X139428427Y-99679896D01*
X139361381Y-99724389D01*
X139306341Y-99747446D01*
X139260362Y-99754309D01*
X139228740Y-99748081D01*
X139209970Y-99731228D01*
X139201040Y-99701298D01*
X139205408Y-99650261D01*
X139230137Y-99564807D01*
X139258164Y-99482741D01*
X139289030Y-99392524D01*
X139308814Y-99335646D01*
G37*
G36*
X140455061Y-98749410D02*
G01*
X140486575Y-98773267D01*
X140501678Y-98812992D01*
X140497575Y-98877782D01*
X140475136Y-98948059D01*
X140435591Y-99019989D01*
X140376095Y-99094692D01*
X140292777Y-99172980D01*
X140172163Y-99259333D01*
X140042904Y-99325661D01*
X139903698Y-99372740D01*
X139900261Y-99472010D01*
X139914926Y-99537456D01*
X139942570Y-99579467D01*
X139982893Y-99604511D01*
X140040443Y-99613625D01*
X140101225Y-99606272D01*
X140162345Y-99583590D01*
X140225260Y-99543456D01*
X140291064Y-99482325D01*
X140360463Y-99395455D01*
X140378359Y-99417825D01*
X140380430Y-99441159D01*
X140361567Y-99476610D01*
X140292960Y-99551068D01*
X140176302Y-99649109D01*
X140075656Y-99710889D01*
X139987951Y-99744086D01*
X139910018Y-99754309D01*
X139845576Y-99744540D01*
X139795610Y-99716841D01*
X139756511Y-99670045D01*
X139732794Y-99611962D01*
X139724484Y-99541695D01*
X139734071Y-99455355D01*
X139766804Y-99344311D01*
X139815228Y-99241307D01*
X139935114Y-99241307D01*
X139982466Y-99250191D01*
X140062441Y-99241862D01*
X140139190Y-99216831D01*
X140214192Y-99173988D01*
X140279210Y-99117601D01*
X140321149Y-99058563D01*
X140343793Y-98995660D01*
X140346616Y-98942650D01*
X140332677Y-98909459D01*
X140303454Y-98888946D01*
X140251927Y-98880896D01*
X140199264Y-98890598D01*
X140141706Y-98922483D01*
X140076439Y-98983845D01*
X140021921Y-99055994D01*
X139974706Y-99141220D01*
X139935114Y-99241307D01*
X139815228Y-99241307D01*
X139821003Y-99229024D01*
X139899554Y-99108156D01*
X140006188Y-98980547D01*
X140106598Y-98882325D01*
X140194227Y-98814475D01*
X140271031Y-98771144D01*
X140339030Y-98747551D01*
X140400305Y-98740212D01*
X140455061Y-98749410D01*
G37*
G36*
X140744138Y-99691111D02*
G01*
X140575335Y-99753576D01*
X140585777Y-99721794D01*
X140609316Y-99646048D01*
X140632305Y-99574332D01*
X140783247Y-99099249D01*
X140800466Y-99045027D01*
X140827669Y-98942812D01*
X140831341Y-98902833D01*
X140824957Y-98885909D01*
X140812098Y-98880896D01*
X140780679Y-98887750D01*
X140740093Y-98912286D01*
X140686450Y-98963292D01*
X140615727Y-99052538D01*
X140598784Y-99029502D01*
X140596493Y-99013795D01*
X140612767Y-98976155D01*
X140656172Y-98922392D01*
X140741756Y-98846000D01*
X140835132Y-98779293D01*
X140897514Y-98748342D01*
X140938311Y-98740212D01*
X140975818Y-98747351D01*
X140997948Y-98766489D01*
X141008530Y-98800007D01*
X141003982Y-98856625D01*
X140982916Y-98933744D01*
X140957636Y-99016909D01*
X140935013Y-99086610D01*
X140916237Y-99145778D01*
X141017836Y-99036543D01*
X141121931Y-98940909D01*
X141228654Y-98857998D01*
X141344246Y-98785973D01*
X141430414Y-98750287D01*
X141494635Y-98740212D01*
X141535877Y-98748536D01*
X141560499Y-98771231D01*
X141572204Y-98811941D01*
X141566076Y-98881812D01*
X141528707Y-99007841D01*
X141395350Y-99389318D01*
X141341769Y-99569936D01*
X141341152Y-99610035D01*
X141355874Y-99619487D01*
X141384360Y-99612635D01*
X141424887Y-99586866D01*
X141482951Y-99531087D01*
X141564702Y-99430717D01*
X141582970Y-99450415D01*
X141585493Y-99467445D01*
X141568074Y-99508845D01*
X141523105Y-99566006D01*
X141436200Y-99644949D01*
X141341018Y-99713331D01*
X141275102Y-99745632D01*
X141229937Y-99754309D01*
X141196742Y-99747465D01*
X141176854Y-99728690D01*
X141167445Y-99694715D01*
X141172784Y-99636065D01*
X141196368Y-99544293D01*
X141242301Y-99403148D01*
X141328763Y-99155303D01*
X141366006Y-99040412D01*
X141385550Y-98964061D01*
X141388059Y-98916630D01*
X141375736Y-98894318D01*
X141350104Y-98886758D01*
X141292349Y-98895292D01*
X141225918Y-98923457D01*
X141147804Y-98976968D01*
X141055089Y-99063620D01*
X140952422Y-99187456D01*
X140875808Y-99313744D01*
X140822814Y-99443540D01*
X140744138Y-99691111D01*
G37*
G36*
X142549764Y-98769338D02*
G01*
X142401753Y-98915243D01*
X142326736Y-98889227D01*
X142254841Y-98880896D01*
X142192800Y-98887713D01*
X142134851Y-98908024D01*
X142079649Y-98942621D01*
X142026321Y-98993553D01*
X141969560Y-99073519D01*
X141922661Y-99175095D01*
X141886828Y-99302673D01*
X141874613Y-99395094D01*
X141878260Y-99467495D01*
X141894521Y-99524323D01*
X141925199Y-99571539D01*
X141965150Y-99598427D01*
X142017345Y-99607763D01*
X142084068Y-99597146D01*
X142150869Y-99563861D01*
X142220114Y-99502912D01*
X142293126Y-99406079D01*
X142307460Y-99435246D01*
X142308513Y-99458286D01*
X142286767Y-99510007D01*
X142234614Y-99572451D01*
X142138245Y-99649437D01*
X142032546Y-99712126D01*
X141946914Y-99744660D01*
X141876753Y-99754309D01*
X141811070Y-99744240D01*
X141760453Y-99715719D01*
X141721140Y-99667480D01*
X141697721Y-99607649D01*
X141689840Y-99534240D01*
X141700348Y-99442991D01*
X141737522Y-99315322D01*
X141795139Y-99192730D01*
X141874571Y-99074026D01*
X141978053Y-98958382D01*
X142074635Y-98873710D01*
X142165757Y-98812513D01*
X142252411Y-98771419D01*
X142335767Y-98747865D01*
X142417140Y-98740212D01*
X142491942Y-98747980D01*
X142549764Y-98769338D01*
G37*
G36*
X143221844Y-98749410D02*
G01*
X143253358Y-98773267D01*
X143268461Y-98812992D01*
X143264357Y-98877782D01*
X143241919Y-98948059D01*
X143202374Y-99019989D01*
X143142878Y-99094692D01*
X143059560Y-99172980D01*
X142938946Y-99259333D01*
X142809687Y-99325661D01*
X142670481Y-99372740D01*
X142667044Y-99472010D01*
X142681709Y-99537456D01*
X142709353Y-99579467D01*
X142749676Y-99604511D01*
X142807226Y-99613625D01*
X142868008Y-99606272D01*
X142929128Y-99583590D01*
X142992043Y-99543456D01*
X143057847Y-99482325D01*
X143127246Y-99395455D01*
X143145142Y-99417825D01*
X143147213Y-99441159D01*
X143128350Y-99476610D01*
X143059743Y-99551068D01*
X142943085Y-99649109D01*
X142842439Y-99710889D01*
X142754734Y-99744086D01*
X142676801Y-99754309D01*
X142612359Y-99744540D01*
X142562393Y-99716841D01*
X142523294Y-99670045D01*
X142499577Y-99611962D01*
X142491267Y-99541695D01*
X142500854Y-99455355D01*
X142533587Y-99344311D01*
X142582011Y-99241307D01*
X142701897Y-99241307D01*
X142749249Y-99250191D01*
X142829223Y-99241862D01*
X142905973Y-99216831D01*
X142980975Y-99173988D01*
X143045993Y-99117601D01*
X143087932Y-99058563D01*
X143110576Y-98995660D01*
X143113399Y-98942650D01*
X143099460Y-98909459D01*
X143070237Y-98888946D01*
X143018710Y-98880896D01*
X142966047Y-98890598D01*
X142908489Y-98922483D01*
X142843222Y-98983845D01*
X142788704Y-99055994D01*
X142741488Y-99141220D01*
X142701897Y-99241307D01*
X142582011Y-99241307D01*
X142587786Y-99229024D01*
X142666337Y-99108156D01*
X142772971Y-98980547D01*
X142873381Y-98882325D01*
X142961010Y-98814475D01*
X143037814Y-98771144D01*
X143105813Y-98747551D01*
X143167088Y-98740212D01*
X143221844Y-98749410D01*
G37*
G36*
X143693736Y-99700636D02*
G01*
X143897618Y-99560685D01*
X144024563Y-99577996D01*
X144101056Y-99540733D01*
X144164866Y-99489394D01*
X144217546Y-99422749D01*
X144257469Y-99345801D01*
X144296865Y-99236298D01*
X144334508Y-99085694D01*
X144371602Y-98926692D01*
X144405155Y-98806428D01*
X144452353Y-98699553D01*
X144512989Y-98604401D01*
X144587505Y-98519723D01*
X144676967Y-98444740D01*
X144782429Y-98378637D01*
X144881925Y-98334227D01*
X144976757Y-98308808D01*
X145068335Y-98300575D01*
X145149038Y-98310401D01*
X145232008Y-98340967D01*
X145047452Y-98494840D01*
X144991777Y-98461169D01*
X144936078Y-98441778D01*
X144879200Y-98435397D01*
X144814993Y-98444056D01*
X144758146Y-98469624D01*
X144706496Y-98513588D01*
X144659174Y-98580011D01*
X144616695Y-98675072D01*
X144580796Y-98806616D01*
X144547457Y-98947849D01*
X144499734Y-99141417D01*
X144451706Y-99279090D01*
X144404666Y-99373107D01*
X144342371Y-99455734D01*
X144261390Y-99528543D01*
X144159019Y-99591918D01*
X144352734Y-99608221D01*
X144443409Y-99615273D01*
X144553227Y-99622326D01*
X144651504Y-99625348D01*
X144773352Y-99615625D01*
X144882435Y-99587466D01*
X144980986Y-99541501D01*
X145070717Y-99477154D01*
X145081493Y-99500225D01*
X145082715Y-99511775D01*
X145072049Y-99532589D01*
X145037561Y-99568658D01*
X144961448Y-99628371D01*
X144860100Y-99691131D01*
X144763269Y-99733588D01*
X144669799Y-99758058D01*
X144578415Y-99766032D01*
X144390561Y-99758247D01*
X144097195Y-99736723D01*
X143693736Y-99700636D01*
G37*
G36*
X145532610Y-98935851D02*
G01*
X145331202Y-99100623D01*
X145329517Y-99014411D01*
X145339170Y-98938232D01*
X145371285Y-98828041D01*
X145419562Y-98727398D01*
X145484507Y-98634930D01*
X145567463Y-98549728D01*
X145670546Y-98471393D01*
X145771210Y-98417064D01*
X145888427Y-98376508D01*
X146024995Y-98350739D01*
X146184189Y-98341608D01*
X146514924Y-98341608D01*
X146703060Y-98338653D01*
X146903545Y-98329518D01*
X146776325Y-98542009D01*
X146752512Y-98579470D01*
X146723751Y-98616458D01*
X146697908Y-98635006D01*
X146673560Y-98640561D01*
X146655517Y-98639004D01*
X146684643Y-98555198D01*
X146684607Y-98517317D01*
X146668414Y-98491953D01*
X146633169Y-98475148D01*
X146542894Y-98464422D01*
X146291259Y-98458845D01*
X146196096Y-98458845D01*
X146041399Y-98951238D01*
X146232824Y-98951238D01*
X146398786Y-98946372D01*
X146545424Y-98932554D01*
X146463140Y-99004081D01*
X146392578Y-99048902D01*
X146331459Y-99072853D01*
X146277429Y-99080198D01*
X146094613Y-99071222D01*
X146026195Y-99068475D01*
X146004213Y-99068475D01*
X145976552Y-99154479D01*
X145930740Y-99282690D01*
X145889481Y-99370927D01*
X145852629Y-99428519D01*
X145806600Y-99478116D01*
X145739957Y-99530938D01*
X145647740Y-99587338D01*
X145853820Y-99604008D01*
X145941290Y-99612251D01*
X146164955Y-99619487D01*
X146272334Y-99610293D01*
X146373820Y-99583008D01*
X146470954Y-99537250D01*
X146564933Y-99471567D01*
X146575834Y-99494758D01*
X146576474Y-99513607D01*
X146552567Y-99547055D01*
X146443483Y-99634233D01*
X146347125Y-99694024D01*
X146253932Y-99734707D01*
X146162858Y-99758301D01*
X146072723Y-99766032D01*
X145883221Y-99759369D01*
X145585733Y-99734891D01*
X145219369Y-99698438D01*
X145077311Y-99689279D01*
X145298229Y-99543100D01*
X145530595Y-99574057D01*
X145596910Y-99543333D01*
X145647093Y-99506918D01*
X145683919Y-99464972D01*
X145730345Y-99374754D01*
X145800056Y-99179117D01*
X146028668Y-98458845D01*
X145997527Y-98458845D01*
X145870688Y-98468697D01*
X145765384Y-98496293D01*
X145677691Y-98539811D01*
X145619816Y-98584895D01*
X145575308Y-98636579D01*
X145542784Y-98695570D01*
X145521803Y-98763202D01*
X145515863Y-98846215D01*
X145532610Y-98935851D01*
G37*
G36*
X148091741Y-98309837D02*
G01*
X148231390Y-98334781D01*
X148338024Y-98371904D01*
X148418122Y-98418886D01*
X148476812Y-98474809D01*
X148517520Y-98540284D01*
X148541632Y-98617386D01*
X148548314Y-98709392D01*
X148534599Y-98820446D01*
X148502030Y-98939502D01*
X148454332Y-99055459D01*
X148390770Y-99169052D01*
X148310201Y-99280868D01*
X148211099Y-99391333D01*
X148092195Y-99495517D01*
X147962652Y-99580562D01*
X147821323Y-99647357D01*
X147666655Y-99696100D01*
X147496741Y-99726286D01*
X147309385Y-99736723D01*
X147069321Y-99726859D01*
X146785027Y-99694774D01*
X146909256Y-99584041D01*
X147192149Y-99584041D01*
X147394663Y-99606376D01*
X147586357Y-99613625D01*
X147703838Y-99607181D01*
X147796854Y-99589665D01*
X147869831Y-99563250D01*
X147936755Y-99523704D01*
X148012184Y-99461732D01*
X148097710Y-99371824D01*
X148175876Y-99269619D01*
X148238168Y-99162670D01*
X148285460Y-99050302D01*
X148318169Y-98931638D01*
X148333852Y-98812454D01*
X148329300Y-98714686D01*
X148307853Y-98633949D01*
X148270995Y-98566650D01*
X148218209Y-98510295D01*
X148147050Y-98463772D01*
X148053407Y-98427487D01*
X147931842Y-98403306D01*
X147775859Y-98394364D01*
X147744901Y-98394364D01*
X147501543Y-99161531D01*
X147471502Y-99257793D01*
X147438396Y-99346634D01*
X147405788Y-99410415D01*
X147374049Y-99454439D01*
X147308141Y-99512975D01*
X147192149Y-99584041D01*
X146909256Y-99584041D01*
X146962072Y-99536963D01*
X147015676Y-99554647D01*
X147097260Y-99572317D01*
X147170313Y-99519751D01*
X147221000Y-99456454D01*
X147262346Y-99367931D01*
X147328345Y-99180124D01*
X147569412Y-98418545D01*
X147407836Y-98447525D01*
X147284869Y-98489135D01*
X147192981Y-98540768D01*
X147126089Y-98601233D01*
X147079935Y-98670915D01*
X147052472Y-98751753D01*
X147045708Y-98836345D01*
X147060441Y-98927974D01*
X146860498Y-99088350D01*
X146855783Y-99027976D01*
X146868283Y-98934111D01*
X146902699Y-98815121D01*
X146952735Y-98710144D01*
X147018387Y-98617282D01*
X147100564Y-98535225D01*
X147201033Y-98463333D01*
X147307645Y-98408115D01*
X147429769Y-98363271D01*
X147569498Y-98329549D01*
X147729205Y-98308126D01*
X147911505Y-98300575D01*
X148091741Y-98309837D01*
G37*
G36*
X150326591Y-98309196D02*
G01*
X150432163Y-98331581D01*
X150504749Y-98363627D01*
X150552655Y-98403077D01*
X150581588Y-98449921D01*
X150593868Y-98506460D01*
X150587979Y-98576814D01*
X150560106Y-98661143D01*
X150512294Y-98739492D01*
X150442000Y-98813283D01*
X150344961Y-98883025D01*
X150215478Y-98948307D01*
X150300774Y-98993924D01*
X150361943Y-99044207D01*
X150403542Y-99099086D01*
X150428421Y-99159570D01*
X150437438Y-99227634D01*
X150429344Y-99305970D01*
X150406639Y-99379522D01*
X150370488Y-99446871D01*
X150319972Y-99509094D01*
X150253270Y-99566769D01*
X150167759Y-99619945D01*
X150056814Y-99668875D01*
X149929946Y-99705429D01*
X149784812Y-99728572D01*
X149618763Y-99736723D01*
X149408224Y-99727136D01*
X149137726Y-99694774D01*
X149246476Y-99596955D01*
X149521218Y-99596955D01*
X149704823Y-99622555D01*
X149896192Y-99631210D01*
X150000780Y-99622848D01*
X150082902Y-99599958D01*
X150147160Y-99564665D01*
X150196951Y-99517366D01*
X150234135Y-99456696D01*
X150258801Y-99379701D01*
X150264196Y-99308891D01*
X150250768Y-99239938D01*
X150217310Y-99170599D01*
X150168899Y-99110264D01*
X150110112Y-99064904D01*
X150039349Y-99033304D01*
X150013520Y-99034311D01*
X149964885Y-99036418D01*
X149921105Y-99034311D01*
X149896467Y-99033395D01*
X149853877Y-99167668D01*
X149827041Y-99253122D01*
X149789686Y-99353873D01*
X149754735Y-99422717D01*
X149722352Y-99467262D01*
X149681566Y-99504404D01*
X149617013Y-99547355D01*
X149521218Y-99596955D01*
X149246476Y-99596955D01*
X149299934Y-99548870D01*
X149331075Y-99557113D01*
X149438786Y-99581659D01*
X149495602Y-99544311D01*
X149539487Y-99503745D01*
X149572234Y-99459843D01*
X149614869Y-99370589D01*
X149681228Y-99183238D01*
X149756218Y-98946475D01*
X149924219Y-98946475D01*
X150021397Y-98951238D01*
X150137351Y-98944094D01*
X150252447Y-98871559D01*
X150332401Y-98797365D01*
X150384140Y-98721173D01*
X150412216Y-98641477D01*
X150417181Y-98571248D01*
X150402187Y-98517144D01*
X150368638Y-98474027D01*
X150312497Y-98439716D01*
X150225212Y-98415565D01*
X150094945Y-98406088D01*
X149924219Y-98946475D01*
X149756218Y-98946475D01*
X149924677Y-98414606D01*
X149790119Y-98434926D01*
X149674218Y-98473381D01*
X149573975Y-98529003D01*
X149506954Y-98583764D01*
X149456537Y-98643143D01*
X149420721Y-98707688D01*
X149398486Y-98778497D01*
X149391539Y-98866841D01*
X149407737Y-98949681D01*
X149209900Y-99100532D01*
X149210373Y-99016261D01*
X149221807Y-98934111D01*
X149252829Y-98828215D01*
X149299943Y-98730727D01*
X149363790Y-98640379D01*
X149445842Y-98556339D01*
X149548329Y-98478262D01*
X149657693Y-98415191D01*
X149774299Y-98365850D01*
X149899081Y-98330075D01*
X150033145Y-98308105D01*
X150177743Y-98300575D01*
X150326591Y-98309196D01*
G37*
G36*
X151027708Y-99419085D02*
G01*
X151049884Y-99438901D01*
X151053079Y-99460668D01*
X151034638Y-99506442D01*
X150989813Y-99566242D01*
X150906350Y-99644949D01*
X150813884Y-99712887D01*
X150747903Y-99745415D01*
X150700911Y-99754309D01*
X150665807Y-99747014D01*
X150644736Y-99726955D01*
X150634776Y-99690539D01*
X150640553Y-99627547D01*
X150681585Y-99474223D01*
X150711627Y-99382815D01*
X150937216Y-98668039D01*
X150998424Y-98508426D01*
X151074357Y-98365135D01*
X151164941Y-98236549D01*
X151270607Y-98121423D01*
X151369158Y-98037531D01*
X151464347Y-97976096D01*
X151557039Y-97934264D01*
X151648301Y-97909958D01*
X151739371Y-97901971D01*
X151795910Y-97905103D01*
X151841586Y-97913695D01*
X151663167Y-98065369D01*
X151615781Y-98053029D01*
X151555730Y-98048517D01*
X151483345Y-98055474D01*
X151419347Y-98075635D01*
X151362012Y-98108841D01*
X151310175Y-98156136D01*
X151254162Y-98233277D01*
X151194624Y-98351049D01*
X151132030Y-98521859D01*
X150859822Y-99382357D01*
X150819155Y-99524781D01*
X150811823Y-99584720D01*
X150817187Y-99607766D01*
X150828314Y-99613625D01*
X150865026Y-99602037D01*
X150926133Y-99553999D01*
X150982610Y-99490306D01*
X151027708Y-99419085D01*
G37*
G36*
X151665823Y-99424856D02*
G01*
X151686829Y-99445197D01*
X151690003Y-99461034D01*
X151666221Y-99503970D01*
X151571942Y-99607030D01*
X151489974Y-99679881D01*
X151422969Y-99724375D01*
X151367922Y-99747441D01*
X151321898Y-99754309D01*
X151290128Y-99748114D01*
X151271306Y-99731396D01*
X151262341Y-99701828D01*
X151266577Y-99651543D01*
X151350383Y-99393440D01*
X151447195Y-99115278D01*
X151471925Y-99044661D01*
X151491617Y-98988424D01*
X151509111Y-98928432D01*
X151509399Y-98890121D01*
X151494456Y-98880896D01*
X151461710Y-98887999D01*
X151419397Y-98913413D01*
X151363473Y-98966202D01*
X151289750Y-99058491D01*
X151276274Y-99036631D01*
X151274912Y-99018191D01*
X151291732Y-98979343D01*
X151336319Y-98924473D01*
X151423931Y-98847191D01*
X151519427Y-98780052D01*
X151584376Y-98748579D01*
X151627813Y-98740212D01*
X151660034Y-98746691D01*
X151679257Y-98764336D01*
X151688403Y-98795938D01*
X151683683Y-98850122D01*
X151658129Y-98934294D01*
X151634957Y-99002804D01*
X151606655Y-99085694D01*
X151504714Y-99378236D01*
X151481084Y-99443723D01*
X151441150Y-99573233D01*
X151441125Y-99605690D01*
X151454339Y-99613625D01*
X151489469Y-99605965D01*
X151533796Y-99578801D01*
X151591264Y-99522687D01*
X151665823Y-99424856D01*
G37*
G36*
X151627538Y-98616198D02*
G01*
X151761719Y-98395189D01*
X151840691Y-98359298D01*
X151911862Y-98315441D01*
X151975950Y-98263481D01*
X151982128Y-98282130D01*
X151981812Y-98298377D01*
X151964863Y-98343894D01*
X151928535Y-98396342D01*
X151866162Y-98457916D01*
X151769200Y-98530580D01*
X151627538Y-98616198D01*
G37*
G36*
X152020830Y-99691111D02*
G01*
X151852028Y-99753576D01*
X151862469Y-99721794D01*
X151886008Y-99646048D01*
X151908997Y-99574332D01*
X152059939Y-99099249D01*
X152077158Y-99045027D01*
X152104361Y-98942812D01*
X152108033Y-98902833D01*
X152101649Y-98885909D01*
X152088790Y-98880896D01*
X152057372Y-98887750D01*
X152016785Y-98912286D01*
X151963142Y-98963292D01*
X151892419Y-99052538D01*
X151875476Y-99029502D01*
X151873185Y-99013795D01*
X151889460Y-98976155D01*
X151932864Y-98922392D01*
X152018449Y-98846000D01*
X152111824Y-98779293D01*
X152174206Y-98748342D01*
X152215003Y-98740212D01*
X152252510Y-98747351D01*
X152274641Y-98766489D01*
X152285222Y-98800007D01*
X152280674Y-98856625D01*
X152259608Y-98933744D01*
X152234329Y-99016909D01*
X152211706Y-99086610D01*
X152192930Y-99145778D01*
X152294529Y-99036543D01*
X152398623Y-98940909D01*
X152505347Y-98857998D01*
X152620939Y-98785973D01*
X152707107Y-98750287D01*
X152771327Y-98740212D01*
X152812570Y-98748536D01*
X152837192Y-98771231D01*
X152848896Y-98811941D01*
X152842768Y-98881812D01*
X152805399Y-99007841D01*
X152672042Y-99389318D01*
X152618462Y-99569936D01*
X152617844Y-99610035D01*
X152632567Y-99619487D01*
X152661052Y-99612635D01*
X152701579Y-99586866D01*
X152759643Y-99531087D01*
X152841394Y-99430717D01*
X152859662Y-99450415D01*
X152862185Y-99467445D01*
X152844767Y-99508845D01*
X152799798Y-99566006D01*
X152712892Y-99644949D01*
X152617710Y-99713331D01*
X152551794Y-99745632D01*
X152506629Y-99754309D01*
X152473435Y-99747465D01*
X152453546Y-99728690D01*
X152444138Y-99694715D01*
X152449476Y-99636065D01*
X152473060Y-99544293D01*
X152518994Y-99403148D01*
X152605456Y-99155303D01*
X152642698Y-99040412D01*
X152662242Y-98964061D01*
X152664751Y-98916630D01*
X152652429Y-98894318D01*
X152626796Y-98886758D01*
X152569041Y-98895292D01*
X152502610Y-98923457D01*
X152424497Y-98976968D01*
X152331782Y-99063620D01*
X152229114Y-99187456D01*
X152152501Y-99313744D01*
X152099507Y-99443540D01*
X152020830Y-99691111D01*
G37*
G36*
X154192901Y-97905141D02*
G01*
X154242921Y-97914702D01*
X154059372Y-98066285D01*
X154004874Y-98052820D01*
X153954043Y-98048517D01*
X153879146Y-98056674D01*
X153809715Y-98080905D01*
X153744053Y-98122083D01*
X153681079Y-98182650D01*
X153620409Y-98266417D01*
X153562350Y-98378342D01*
X153507811Y-98524332D01*
X153329208Y-99079557D01*
X153402320Y-98986717D01*
X153481351Y-98906165D01*
X153566521Y-98837024D01*
X153659957Y-98779025D01*
X153735388Y-98749068D01*
X153797056Y-98740212D01*
X153854907Y-98749686D01*
X153888034Y-98774104D01*
X153903894Y-98814355D01*
X153900004Y-98879522D01*
X153871988Y-98961065D01*
X153821054Y-99040116D01*
X153743108Y-99118117D01*
X153652366Y-99182329D01*
X153548818Y-99233925D01*
X153430691Y-99272723D01*
X153504325Y-99459248D01*
X153561002Y-99558327D01*
X153604193Y-99602120D01*
X153638511Y-99613625D01*
X153678615Y-99604078D01*
X153731830Y-99569188D01*
X153804016Y-99495106D01*
X153820837Y-99516442D01*
X153823067Y-99533666D01*
X153809918Y-99563396D01*
X153774043Y-99606243D01*
X153702350Y-99667663D01*
X153624771Y-99720776D01*
X153571016Y-99746592D01*
X153534372Y-99754309D01*
X153504561Y-99747045D01*
X153467847Y-99716907D01*
X153420407Y-99649625D01*
X153359162Y-99524920D01*
X153281123Y-99317602D01*
X153268575Y-99280142D01*
X153138699Y-99691202D01*
X152969439Y-99756324D01*
X152980246Y-99721702D01*
X153003968Y-99645682D01*
X153027507Y-99571584D01*
X153133178Y-99238468D01*
X153282588Y-99238468D01*
X153384134Y-99229999D01*
X153476294Y-99205304D01*
X153560842Y-99164645D01*
X153634683Y-99108622D01*
X153681538Y-99048286D01*
X153706289Y-98982288D01*
X153711210Y-98928886D01*
X153702887Y-98898079D01*
X153685278Y-98881168D01*
X153656005Y-98875034D01*
X153613018Y-98883748D01*
X153556191Y-98914995D01*
X153479967Y-98979631D01*
X153379377Y-99093706D01*
X153282588Y-99238468D01*
X153133178Y-99238468D01*
X153312356Y-98673626D01*
X153372050Y-98518445D01*
X153448910Y-98376562D01*
X153543259Y-98246622D01*
X153656005Y-98127651D01*
X153760591Y-98040993D01*
X153860510Y-97977748D01*
X153956722Y-97934868D01*
X154050365Y-97910077D01*
X154142720Y-97901971D01*
X154192901Y-97905141D01*
G37*
G36*
X154665598Y-98749410D02*
G01*
X154697112Y-98773267D01*
X154712215Y-98812992D01*
X154708112Y-98877782D01*
X154685673Y-98948059D01*
X154646129Y-99019989D01*
X154586632Y-99094692D01*
X154503314Y-99172980D01*
X154382701Y-99259333D01*
X154253441Y-99325661D01*
X154114235Y-99372740D01*
X154110799Y-99472010D01*
X154125463Y-99537456D01*
X154153107Y-99579467D01*
X154193430Y-99604511D01*
X154250981Y-99613625D01*
X154311762Y-99606272D01*
X154372882Y-99583590D01*
X154435797Y-99543456D01*
X154501601Y-99482325D01*
X154571000Y-99395455D01*
X154588897Y-99417825D01*
X154590967Y-99441159D01*
X154572104Y-99476610D01*
X154503497Y-99551068D01*
X154386839Y-99649109D01*
X154286194Y-99710889D01*
X154198489Y-99744086D01*
X154120555Y-99754309D01*
X154056113Y-99744540D01*
X154006148Y-99716841D01*
X153967049Y-99670045D01*
X153943332Y-99611962D01*
X153935021Y-99541695D01*
X153944609Y-99455355D01*
X153977341Y-99344311D01*
X154025765Y-99241307D01*
X154145651Y-99241307D01*
X154193004Y-99250191D01*
X154272978Y-99241862D01*
X154349727Y-99216831D01*
X154424729Y-99173988D01*
X154489747Y-99117601D01*
X154531687Y-99058563D01*
X154554330Y-98995660D01*
X154557153Y-98942650D01*
X154543214Y-98909459D01*
X154513991Y-98888946D01*
X154462465Y-98880896D01*
X154409801Y-98890598D01*
X154352243Y-98922483D01*
X154286976Y-98983845D01*
X154232458Y-99055994D01*
X154185243Y-99141220D01*
X154145651Y-99241307D01*
X154025765Y-99241307D01*
X154031540Y-99229024D01*
X154110092Y-99108156D01*
X154216726Y-98980547D01*
X154317136Y-98882325D01*
X154404764Y-98814475D01*
X154481569Y-98771144D01*
X154549568Y-98747551D01*
X154610842Y-98740212D01*
X154665598Y-98749410D01*
G37*
G36*
X155116516Y-99173438D02*
G01*
X155239445Y-99014582D01*
X155345217Y-98900745D01*
X155436176Y-98823209D01*
X155514666Y-98774438D01*
X155583100Y-98748267D01*
X155643989Y-98740212D01*
X155699742Y-98747221D01*
X155755914Y-98768880D01*
X155577311Y-98929348D01*
X155544659Y-98915426D01*
X155498543Y-98910205D01*
X155452712Y-98917954D01*
X155397411Y-98944298D01*
X155329208Y-98996018D01*
X155244652Y-99082213D01*
X155151984Y-99201711D01*
X155082904Y-99320688D01*
X155035092Y-99440060D01*
X154955774Y-99690836D01*
X154789903Y-99744142D01*
X154800985Y-99708147D01*
X154821868Y-99641835D01*
X154843575Y-99575614D01*
X154996624Y-99090182D01*
X155013660Y-99037151D01*
X155041045Y-98939515D01*
X155043985Y-98902278D01*
X155036925Y-98885962D01*
X155022636Y-98880896D01*
X154989211Y-98888184D01*
X154947810Y-98913845D01*
X154894953Y-98966591D01*
X154827272Y-99058308D01*
X154809600Y-99034122D01*
X154808221Y-99012879D01*
X154826348Y-98973979D01*
X154870947Y-98919798D01*
X154955683Y-98844626D01*
X155048055Y-98778877D01*
X155110100Y-98748278D01*
X155150955Y-98740212D01*
X155187762Y-98747351D01*
X155209554Y-98766588D01*
X155219950Y-98800536D01*
X155215160Y-98858182D01*
X155194644Y-98933012D01*
X155172753Y-99004636D01*
X155145917Y-99090548D01*
X155116516Y-99173438D01*
G37*
G36*
X136100013Y-101773306D02*
G01*
X136204243Y-101800593D01*
X136277008Y-101837936D01*
X136325838Y-101883624D01*
X136355574Y-101938251D01*
X136367677Y-102004635D01*
X136359948Y-102087280D01*
X136332294Y-102172259D01*
X136284326Y-102254639D01*
X136213169Y-102335701D01*
X136114484Y-102416092D01*
X136006643Y-102481411D01*
X135899970Y-102526396D01*
X135793390Y-102552797D01*
X135685655Y-102561538D01*
X135564984Y-102551765D01*
X135449991Y-102522704D01*
X135600017Y-102390996D01*
X135689217Y-102428111D01*
X135772732Y-102449233D01*
X135851801Y-102456025D01*
X135936130Y-102447389D01*
X136012754Y-102422017D01*
X136083526Y-102379547D01*
X136143318Y-102323210D01*
X136184627Y-102259316D01*
X136209189Y-102186290D01*
X136215215Y-102118293D01*
X136204436Y-102060454D01*
X136177862Y-102009838D01*
X136133810Y-101964548D01*
X136080392Y-101930736D01*
X136012940Y-101904791D01*
X135928381Y-101887775D01*
X135823041Y-101881566D01*
X135740243Y-101892008D01*
X135894207Y-101764330D01*
X135928371Y-101764330D01*
X135977006Y-101765337D01*
X136111505Y-101722027D01*
X136210651Y-101669021D01*
X136281628Y-101607802D01*
X136329629Y-101538210D01*
X136357383Y-101458415D01*
X136362050Y-101402858D01*
X136352450Y-101357599D01*
X136329723Y-101319655D01*
X136296059Y-101290765D01*
X136252109Y-101272651D01*
X136194626Y-101266074D01*
X136102782Y-101277164D01*
X136016260Y-101310467D01*
X135932859Y-101367923D01*
X135927455Y-101333577D01*
X135941879Y-101306088D01*
X135981923Y-101272684D01*
X136063834Y-101231178D01*
X136149373Y-101200570D01*
X136225555Y-101183509D01*
X136293819Y-101178147D01*
X136376430Y-101186196D01*
X136440326Y-101208264D01*
X136489733Y-101242810D01*
X136525276Y-101289578D01*
X136541102Y-101343586D01*
X136537177Y-101408590D01*
X136511956Y-101478035D01*
X136462789Y-101548109D01*
X136383693Y-101620402D01*
X136266234Y-101695536D01*
X136100013Y-101773306D01*
G37*
G36*
X137039096Y-102220636D02*
G01*
X137242978Y-102080685D01*
X137369923Y-102097996D01*
X137446415Y-102060733D01*
X137510226Y-102009394D01*
X137562905Y-101942749D01*
X137602828Y-101865801D01*
X137642224Y-101756298D01*
X137679867Y-101605694D01*
X137716961Y-101446692D01*
X137750514Y-101326428D01*
X137797713Y-101219553D01*
X137858349Y-101124401D01*
X137932864Y-101039723D01*
X138022326Y-100964740D01*
X138127789Y-100898637D01*
X138227285Y-100854227D01*
X138322116Y-100828808D01*
X138413695Y-100820575D01*
X138494397Y-100830401D01*
X138577368Y-100860967D01*
X138392812Y-101014840D01*
X138337137Y-100981169D01*
X138281438Y-100961778D01*
X138224559Y-100955397D01*
X138160352Y-100964056D01*
X138103506Y-100989624D01*
X138051855Y-101033588D01*
X138004534Y-101100011D01*
X137962055Y-101195072D01*
X137926155Y-101326616D01*
X137892816Y-101467849D01*
X137845094Y-101661417D01*
X137797065Y-101799090D01*
X137750026Y-101893107D01*
X137687731Y-101975734D01*
X137606750Y-102048543D01*
X137504378Y-102111918D01*
X137698094Y-102128221D01*
X137788769Y-102135273D01*
X137898586Y-102142326D01*
X137996864Y-102145348D01*
X138118712Y-102135625D01*
X138227794Y-102107466D01*
X138326345Y-102061501D01*
X138416076Y-101997154D01*
X138426852Y-102020225D01*
X138428074Y-102031775D01*
X138417409Y-102052589D01*
X138382920Y-102088658D01*
X138306808Y-102148371D01*
X138205460Y-102211131D01*
X138108629Y-102253588D01*
X138015158Y-102278058D01*
X137923774Y-102286032D01*
X137735921Y-102278247D01*
X137442554Y-102256723D01*
X137039096Y-102220636D01*
G37*
G36*
X138877970Y-101455851D02*
G01*
X138676561Y-101620623D01*
X138674876Y-101534411D01*
X138684529Y-101458232D01*
X138716644Y-101348041D01*
X138764921Y-101247398D01*
X138829866Y-101154930D01*
X138912822Y-101069728D01*
X139015906Y-100991393D01*
X139116570Y-100937064D01*
X139233787Y-100896508D01*
X139370354Y-100870739D01*
X139529549Y-100861608D01*
X139860284Y-100861608D01*
X140048420Y-100858653D01*
X140248905Y-100849518D01*
X140121685Y-101062009D01*
X140097871Y-101099470D01*
X140069110Y-101136458D01*
X140043267Y-101155006D01*
X140018920Y-101160561D01*
X140000876Y-101159004D01*
X140030002Y-101075198D01*
X140029966Y-101037317D01*
X140013773Y-101011953D01*
X139978528Y-100995148D01*
X139888253Y-100984422D01*
X139636618Y-100978845D01*
X139541455Y-100978845D01*
X139386758Y-101471238D01*
X139578183Y-101471238D01*
X139744146Y-101466372D01*
X139890784Y-101452554D01*
X139808499Y-101524081D01*
X139737937Y-101568902D01*
X139676818Y-101592853D01*
X139622788Y-101600198D01*
X139439972Y-101591222D01*
X139371554Y-101588475D01*
X139349572Y-101588475D01*
X139321912Y-101674479D01*
X139276100Y-101802690D01*
X139234840Y-101890927D01*
X139197989Y-101948519D01*
X139151960Y-101998116D01*
X139085317Y-102050938D01*
X138993100Y-102107338D01*
X139199180Y-102124008D01*
X139286649Y-102132251D01*
X139510314Y-102139487D01*
X139617694Y-102130293D01*
X139719179Y-102103008D01*
X139816313Y-102057250D01*
X139910293Y-101991567D01*
X139921194Y-102014758D01*
X139921833Y-102033607D01*
X139897926Y-102067055D01*
X139788843Y-102154233D01*
X139692484Y-102214024D01*
X139599291Y-102254707D01*
X139508217Y-102278301D01*
X139418082Y-102286032D01*
X139228581Y-102279369D01*
X138931092Y-102254891D01*
X138564728Y-102218438D01*
X138422670Y-102209279D01*
X138643588Y-102063100D01*
X138875955Y-102094057D01*
X138942270Y-102063333D01*
X138992452Y-102026918D01*
X139029278Y-101984972D01*
X139075705Y-101894754D01*
X139145416Y-101699117D01*
X139374027Y-100978845D01*
X139342886Y-100978845D01*
X139216047Y-100988697D01*
X139110743Y-101016293D01*
X139023050Y-101059811D01*
X138965175Y-101104895D01*
X138920667Y-101156579D01*
X138888144Y-101215570D01*
X138867162Y-101283202D01*
X138861223Y-101366215D01*
X138877970Y-101455851D01*
G37*
G36*
X141437100Y-100829837D02*
G01*
X141576749Y-100854781D01*
X141683384Y-100891904D01*
X141763482Y-100938886D01*
X141822171Y-100994809D01*
X141862880Y-101060284D01*
X141886991Y-101137386D01*
X141893673Y-101229392D01*
X141879959Y-101340446D01*
X141847389Y-101459502D01*
X141799691Y-101575459D01*
X141736129Y-101689052D01*
X141655560Y-101800868D01*
X141556459Y-101911333D01*
X141437555Y-102015517D01*
X141308011Y-102100562D01*
X141166683Y-102167357D01*
X141012014Y-102216100D01*
X140842101Y-102246286D01*
X140654745Y-102256723D01*
X140414681Y-102246859D01*
X140130386Y-102214774D01*
X140254615Y-102104041D01*
X140537508Y-102104041D01*
X140740022Y-102126376D01*
X140931716Y-102133625D01*
X141049198Y-102127181D01*
X141142213Y-102109665D01*
X141215191Y-102083250D01*
X141282114Y-102043704D01*
X141357544Y-101981732D01*
X141443069Y-101891824D01*
X141521235Y-101789619D01*
X141583527Y-101682670D01*
X141630820Y-101570302D01*
X141663529Y-101451638D01*
X141679212Y-101332454D01*
X141674659Y-101234686D01*
X141653212Y-101153949D01*
X141616354Y-101086650D01*
X141563569Y-101030295D01*
X141492409Y-100983772D01*
X141398767Y-100947487D01*
X141277202Y-100923306D01*
X141121218Y-100914364D01*
X141090260Y-100914364D01*
X140846903Y-101681531D01*
X140816861Y-101777793D01*
X140783756Y-101866634D01*
X140751147Y-101930415D01*
X140719408Y-101974439D01*
X140653500Y-102032975D01*
X140537508Y-102104041D01*
X140254615Y-102104041D01*
X140307431Y-102056963D01*
X140361035Y-102074647D01*
X140442620Y-102092317D01*
X140515673Y-102039751D01*
X140566359Y-101976454D01*
X140607706Y-101887931D01*
X140673704Y-101700124D01*
X140914772Y-100938545D01*
X140753195Y-100967525D01*
X140630228Y-101009135D01*
X140538340Y-101060768D01*
X140471449Y-101121233D01*
X140425294Y-101190915D01*
X140397832Y-101271753D01*
X140391067Y-101356345D01*
X140405800Y-101447974D01*
X140205857Y-101608350D01*
X140201143Y-101547976D01*
X140213642Y-101454111D01*
X140248059Y-101335121D01*
X140298094Y-101230144D01*
X140363746Y-101137282D01*
X140445924Y-101055225D01*
X140546393Y-100983333D01*
X140653004Y-100928115D01*
X140775129Y-100883271D01*
X140914857Y-100849549D01*
X141074564Y-100828126D01*
X141256864Y-100820575D01*
X141437100Y-100829837D01*
G37*
G36*
X141744953Y-102216606D02*
G01*
X141913206Y-102097263D01*
X141959697Y-102146577D01*
X142017618Y-102176016D01*
X142090710Y-102186381D01*
X142156341Y-102177044D01*
X142204337Y-102151308D01*
X142239252Y-102109023D01*
X142261985Y-102045514D01*
X142261503Y-101995227D01*
X142236950Y-101925099D01*
X142176164Y-101826337D01*
X142131559Y-101765612D01*
X142074309Y-101670633D01*
X142050930Y-101599369D01*
X142051234Y-101544786D01*
X142077544Y-101470209D01*
X142124343Y-101403181D01*
X142194849Y-101342186D01*
X142277046Y-101296693D01*
X142365328Y-101269466D01*
X142461562Y-101260212D01*
X142543253Y-101268037D01*
X142636409Y-101293277D01*
X142485925Y-101413627D01*
X142440056Y-101377098D01*
X142388808Y-101355516D01*
X142330312Y-101348140D01*
X142279717Y-101354598D01*
X142244107Y-101371958D01*
X142219448Y-101399510D01*
X142204374Y-101439639D01*
X142205243Y-101481909D01*
X142227833Y-101543674D01*
X142284241Y-101633995D01*
X142332235Y-101701956D01*
X142383858Y-101783056D01*
X142412410Y-101848060D01*
X142423547Y-101900436D01*
X142421262Y-101943390D01*
X142401651Y-102004276D01*
X142368128Y-102062534D01*
X142318923Y-102119060D01*
X142251269Y-102174291D01*
X142152415Y-102230674D01*
X142052360Y-102263453D01*
X141949201Y-102274309D01*
X141875536Y-102267762D01*
X141807883Y-102248542D01*
X141744953Y-102216606D01*
G37*
G36*
X143683112Y-101793639D02*
G01*
X143214257Y-101793639D01*
X143366939Y-101658817D01*
X143725793Y-101658817D01*
X143836893Y-101306741D01*
X144000658Y-101178788D01*
X143848251Y-101658817D01*
X144316006Y-101658817D01*
X144163324Y-101793639D01*
X143805478Y-101793639D01*
X143691263Y-102156339D01*
X143528048Y-102285483D01*
X143683112Y-101793639D01*
G37*
G36*
X145377821Y-101773306D02*
G01*
X145482051Y-101800593D01*
X145554817Y-101837936D01*
X145603647Y-101883624D01*
X145633383Y-101938251D01*
X145645486Y-102004635D01*
X145637757Y-102087280D01*
X145610102Y-102172259D01*
X145562135Y-102254639D01*
X145490978Y-102335701D01*
X145392293Y-102416092D01*
X145284452Y-102481411D01*
X145177779Y-102526396D01*
X145071199Y-102552797D01*
X144963463Y-102561538D01*
X144842793Y-102551765D01*
X144727800Y-102522704D01*
X144877826Y-102390996D01*
X144967026Y-102428111D01*
X145050540Y-102449233D01*
X145129610Y-102456025D01*
X145213938Y-102447389D01*
X145290563Y-102422017D01*
X145361335Y-102379547D01*
X145421127Y-102323210D01*
X145462436Y-102259316D01*
X145486998Y-102186290D01*
X145493023Y-102118293D01*
X145482245Y-102060454D01*
X145455671Y-102009838D01*
X145411618Y-101964548D01*
X145358200Y-101930736D01*
X145290749Y-101904791D01*
X145206189Y-101887775D01*
X145100850Y-101881566D01*
X145018052Y-101892008D01*
X145172016Y-101764330D01*
X145206180Y-101764330D01*
X145254815Y-101765337D01*
X145389314Y-101722027D01*
X145488460Y-101669021D01*
X145559437Y-101607802D01*
X145607437Y-101538210D01*
X145635192Y-101458415D01*
X145639858Y-101402858D01*
X145630259Y-101357599D01*
X145607532Y-101319655D01*
X145573868Y-101290765D01*
X145529918Y-101272651D01*
X145472435Y-101266074D01*
X145380591Y-101277164D01*
X145294069Y-101310467D01*
X145210668Y-101367923D01*
X145205264Y-101333577D01*
X145219688Y-101306088D01*
X145259732Y-101272684D01*
X145341643Y-101231178D01*
X145427182Y-101200570D01*
X145503364Y-101183509D01*
X145571628Y-101178147D01*
X145654239Y-101186196D01*
X145718134Y-101208264D01*
X145767541Y-101242810D01*
X145803085Y-101289578D01*
X145818911Y-101343586D01*
X145814986Y-101408590D01*
X145789765Y-101478035D01*
X145740598Y-101548109D01*
X145661501Y-101620402D01*
X145544043Y-101695536D01*
X145377821Y-101773306D01*
G37*
G36*
X146451910Y-102058978D02*
G01*
X146650662Y-101949710D01*
X146654724Y-102032612D01*
X146673465Y-102094499D01*
X146704664Y-102140581D01*
X146748836Y-102174121D01*
X146809116Y-102195881D01*
X146890723Y-102203967D01*
X146970643Y-102196134D01*
X147042024Y-102173326D01*
X147106694Y-102135548D01*
X147161333Y-102084820D01*
X147199203Y-102026647D01*
X147221824Y-101959510D01*
X147226458Y-101889588D01*
X147211050Y-101819200D01*
X147173364Y-101745810D01*
X147108435Y-101667335D01*
X147008142Y-101566951D01*
X146900983Y-101447015D01*
X146852254Y-101371953D01*
X146835335Y-101323042D01*
X146829811Y-101269560D01*
X146836409Y-101209929D01*
X146861167Y-101129812D01*
X146900346Y-101057313D01*
X146954817Y-100991183D01*
X147026461Y-100930759D01*
X147106443Y-100882755D01*
X147191760Y-100848519D01*
X147283462Y-100827693D01*
X147382841Y-100820575D01*
X147487285Y-100829660D01*
X147583198Y-100856314D01*
X147672361Y-100900534D01*
X147584250Y-101039478D01*
X147545599Y-101100020D01*
X147508994Y-101143600D01*
X147479928Y-101154699D01*
X147451352Y-101142151D01*
X147476400Y-101088753D01*
X147487164Y-101054682D01*
X147487970Y-101014380D01*
X147473117Y-100979136D01*
X147440269Y-100946421D01*
X147397976Y-100923142D01*
X147344440Y-100908113D01*
X147276779Y-100902641D01*
X147184885Y-100911811D01*
X147115651Y-100936711D01*
X147063719Y-100975411D01*
X147025852Y-101028814D01*
X147001456Y-101100478D01*
X146997581Y-101146813D01*
X147005335Y-101191768D01*
X147025270Y-101236673D01*
X147078554Y-101308797D01*
X147201125Y-101440555D01*
X147281175Y-101522712D01*
X147349856Y-101606108D01*
X147390037Y-101686700D01*
X147406296Y-101766619D01*
X147400244Y-101848593D01*
X147372507Y-101937135D01*
X147327726Y-102017968D01*
X147264602Y-102092458D01*
X147180608Y-102161285D01*
X147087581Y-102215660D01*
X146988722Y-102254429D01*
X146882875Y-102277991D01*
X146768632Y-102286032D01*
X146672829Y-102278334D01*
X146599130Y-102257443D01*
X146542803Y-102225509D01*
X146500391Y-102182953D01*
X146470070Y-102128420D01*
X146451910Y-102058978D01*
G37*
G36*
X147750305Y-102278613D02*
G01*
X147792181Y-102035912D01*
X147813045Y-101818277D01*
X147825226Y-101600565D01*
X147824269Y-101501803D01*
X147812057Y-101447848D01*
X147794100Y-101421720D01*
X147771371Y-101412620D01*
X147741187Y-101417419D01*
X147709622Y-101438926D01*
X147674612Y-101484474D01*
X147635450Y-101565669D01*
X147610604Y-101548788D01*
X147607240Y-101520514D01*
X147624336Y-101471097D01*
X147658566Y-101415221D01*
X147714767Y-101351071D01*
X147779721Y-101295145D01*
X147829069Y-101267892D01*
X147867267Y-101260212D01*
X147905262Y-101268155D01*
X147935777Y-101292003D01*
X147960557Y-101336298D01*
X147977909Y-101410422D01*
X147984439Y-101513289D01*
X147979909Y-101677182D01*
X147958583Y-101923057D01*
X147952721Y-101974714D01*
X148107653Y-101755884D01*
X148234352Y-101557617D01*
X148335846Y-101378182D01*
X148485415Y-101256274D01*
X148463066Y-101477650D01*
X148452991Y-101641781D01*
X148446122Y-101756636D01*
X148435956Y-102010343D01*
X148462792Y-101977187D01*
X148671872Y-101703526D01*
X148767356Y-101553651D01*
X148797191Y-101480947D01*
X148797997Y-101444756D01*
X148784827Y-101411852D01*
X148755425Y-101380105D01*
X148905360Y-101259571D01*
X148942973Y-101293406D01*
X148960044Y-101331076D01*
X148959307Y-101375617D01*
X148939385Y-101430214D01*
X148887562Y-101518529D01*
X148786749Y-101654695D01*
X148704043Y-101758285D01*
X148600911Y-101892557D01*
X148498588Y-102035040D01*
X148429178Y-102150203D01*
X148277137Y-102278522D01*
X148297913Y-102084778D01*
X148309926Y-101882574D01*
X148312857Y-101786128D01*
X148319269Y-101555502D01*
X148259368Y-101636560D01*
X148089745Y-101881455D01*
X147940265Y-102130144D01*
X147750305Y-102278613D01*
G37*
G36*
X149403157Y-101944856D02*
G01*
X149424163Y-101965197D01*
X149427337Y-101981034D01*
X149403556Y-102023970D01*
X149309276Y-102127030D01*
X149227308Y-102199881D01*
X149160303Y-102244375D01*
X149105256Y-102267441D01*
X149059233Y-102274309D01*
X149027463Y-102268114D01*
X149008640Y-102251396D01*
X148999675Y-102221828D01*
X149003912Y-102171543D01*
X149087718Y-101913440D01*
X149184529Y-101635278D01*
X149209259Y-101564661D01*
X149228951Y-101508424D01*
X149246445Y-101448432D01*
X149246734Y-101410121D01*
X149231790Y-101400896D01*
X149199045Y-101407999D01*
X149156731Y-101433413D01*
X149100808Y-101486202D01*
X149027084Y-101578491D01*
X149013608Y-101556631D01*
X149012247Y-101538191D01*
X149029066Y-101499343D01*
X149073653Y-101444473D01*
X149161265Y-101367191D01*
X149256761Y-101300052D01*
X149321710Y-101268579D01*
X149365147Y-101260212D01*
X149397368Y-101266691D01*
X149416592Y-101284336D01*
X149425737Y-101315938D01*
X149421017Y-101370122D01*
X149395464Y-101454294D01*
X149372291Y-101522804D01*
X149343989Y-101605694D01*
X149242049Y-101898236D01*
X149218418Y-101963723D01*
X149178484Y-102093233D01*
X149178460Y-102125690D01*
X149191673Y-102133625D01*
X149226803Y-102125965D01*
X149271130Y-102098801D01*
X149328599Y-102042687D01*
X149403157Y-101944856D01*
G37*
G36*
X149364872Y-101136198D02*
G01*
X149499053Y-100915189D01*
X149578026Y-100879298D01*
X149649196Y-100835441D01*
X149713285Y-100783481D01*
X149719463Y-100802130D01*
X149719146Y-100818377D01*
X149702198Y-100863894D01*
X149665870Y-100916342D01*
X149603496Y-100977916D01*
X149506534Y-101050580D01*
X149364872Y-101136198D01*
G37*
G36*
X149966900Y-101418482D02*
G01*
X149824476Y-101863065D01*
X149774742Y-102040477D01*
X149769553Y-102095784D01*
X149777950Y-102127579D01*
X149795763Y-102144939D01*
X149825300Y-102151210D01*
X149875439Y-102139900D01*
X149940297Y-102099247D01*
X150026251Y-102014282D01*
X150035823Y-102037780D01*
X150036326Y-102054673D01*
X150021049Y-102089682D01*
X149982253Y-102134804D01*
X149907916Y-102193800D01*
X149827029Y-102242828D01*
X149765919Y-102267331D01*
X149719696Y-102274309D01*
X149668566Y-102266697D01*
X149634877Y-102246403D01*
X149613674Y-102213344D01*
X149604810Y-102162550D01*
X149613084Y-102085539D01*
X149676099Y-101864439D01*
X149817424Y-101418482D01*
X149602093Y-101418482D01*
X149751753Y-101289521D01*
X149857998Y-101289521D01*
X149918174Y-101100844D01*
X150082946Y-101047629D01*
X150007475Y-101289521D01*
X150436304Y-101289521D01*
X150286645Y-101418482D01*
X149966900Y-101418482D01*
G37*
G36*
X151115361Y-101289338D02*
G01*
X150967349Y-101435243D01*
X150892332Y-101409227D01*
X150820437Y-101400896D01*
X150758397Y-101407713D01*
X150700448Y-101428024D01*
X150645246Y-101462621D01*
X150591918Y-101513553D01*
X150535156Y-101593519D01*
X150488258Y-101695095D01*
X150452424Y-101822673D01*
X150440209Y-101915094D01*
X150443857Y-101987495D01*
X150460118Y-102044323D01*
X150490796Y-102091539D01*
X150530747Y-102118427D01*
X150582942Y-102127763D01*
X150649665Y-102117146D01*
X150716466Y-102083861D01*
X150785711Y-102022912D01*
X150858722Y-101926079D01*
X150873056Y-101955246D01*
X150874110Y-101978286D01*
X150852364Y-102030007D01*
X150800210Y-102092451D01*
X150703842Y-102169437D01*
X150598143Y-102232126D01*
X150512510Y-102264660D01*
X150442349Y-102274309D01*
X150376667Y-102264240D01*
X150326049Y-102235719D01*
X150286736Y-102187480D01*
X150263318Y-102127649D01*
X150255437Y-102054240D01*
X150265945Y-101962991D01*
X150303118Y-101835322D01*
X150360736Y-101712730D01*
X150440168Y-101594026D01*
X150543649Y-101478382D01*
X150640232Y-101393710D01*
X150731354Y-101332513D01*
X150818008Y-101291419D01*
X150901363Y-101267865D01*
X150982737Y-101260212D01*
X151057539Y-101267980D01*
X151115361Y-101289338D01*
G37*
G36*
X151395538Y-101665686D02*
G01*
X151496565Y-101556548D01*
X151600323Y-101460941D01*
X151706947Y-101377998D01*
X151822517Y-101306052D01*
X151909036Y-101270325D01*
X151973844Y-101260212D01*
X152015086Y-101268536D01*
X152039708Y-101291231D01*
X152051412Y-101331941D01*
X152045285Y-101401812D01*
X152007000Y-101527933D01*
X151874651Y-101909318D01*
X151820978Y-102089936D01*
X151820384Y-102130021D01*
X151835175Y-102139487D01*
X151863603Y-102132633D01*
X151903963Y-102106874D01*
X151961701Y-102051125D01*
X152042903Y-101950809D01*
X152062067Y-101970451D01*
X152064794Y-101987445D01*
X152047375Y-102028845D01*
X152002406Y-102086006D01*
X151915500Y-102164949D01*
X151820257Y-102233334D01*
X151754314Y-102265633D01*
X151709146Y-102274309D01*
X151675951Y-102267465D01*
X151656063Y-102248690D01*
X151646654Y-102214715D01*
X151651993Y-102156065D01*
X151675577Y-102064293D01*
X151721510Y-101923148D01*
X151807056Y-101675395D01*
X151844501Y-101559423D01*
X151864301Y-101482046D01*
X151866577Y-101436025D01*
X151854234Y-101414211D01*
X151828489Y-101406758D01*
X151770690Y-101415301D01*
X151704294Y-101443479D01*
X151626310Y-101496991D01*
X151533840Y-101583620D01*
X151431361Y-101707392D01*
X151354539Y-101833690D01*
X151301016Y-101963540D01*
X151223346Y-102211019D01*
X151053995Y-102276324D01*
X151064894Y-102241702D01*
X151088616Y-102165682D01*
X151112155Y-102091584D01*
X151395996Y-101193626D01*
X151456054Y-101038957D01*
X151533193Y-100897310D01*
X151627755Y-100767374D01*
X151740653Y-100648201D01*
X151845308Y-100561247D01*
X151945151Y-100497840D01*
X152041151Y-100454889D01*
X152134457Y-100430078D01*
X152226360Y-100421971D01*
X152276680Y-100425104D01*
X152327568Y-100434610D01*
X152144020Y-100586285D01*
X152089521Y-100572820D01*
X152038690Y-100568517D01*
X151963790Y-100576674D01*
X151894358Y-100600901D01*
X151828695Y-100642074D01*
X151765720Y-100702631D01*
X151705052Y-100786383D01*
X151646995Y-100898284D01*
X151592459Y-101044241D01*
X151395538Y-101665686D01*
G37*
G36*
X152896792Y-101269410D02*
G01*
X152928305Y-101293267D01*
X152943408Y-101332992D01*
X152939305Y-101397782D01*
X152916866Y-101468059D01*
X152877322Y-101539989D01*
X152817826Y-101614692D01*
X152734508Y-101692980D01*
X152613894Y-101779333D01*
X152484634Y-101845661D01*
X152345429Y-101892740D01*
X152341992Y-101992010D01*
X152356656Y-102057456D01*
X152384301Y-102099467D01*
X152424624Y-102124511D01*
X152482174Y-102133625D01*
X152542956Y-102126272D01*
X152604076Y-102103590D01*
X152666990Y-102063456D01*
X152732794Y-102002325D01*
X152802193Y-101915455D01*
X152820090Y-101937825D01*
X152822160Y-101961159D01*
X152803297Y-101996610D01*
X152734691Y-102071068D01*
X152618032Y-102169109D01*
X152517387Y-102230889D01*
X152429682Y-102264086D01*
X152351748Y-102274309D01*
X152287306Y-102264540D01*
X152237341Y-102236841D01*
X152198242Y-102190045D01*
X152174525Y-102131962D01*
X152166214Y-102061695D01*
X152175802Y-101975355D01*
X152208534Y-101864311D01*
X152256958Y-101761307D01*
X152376844Y-101761307D01*
X152424197Y-101770191D01*
X152504171Y-101761862D01*
X152580921Y-101736831D01*
X152655922Y-101693988D01*
X152720941Y-101637601D01*
X152762880Y-101578563D01*
X152785524Y-101515660D01*
X152788347Y-101462650D01*
X152774407Y-101429459D01*
X152745184Y-101408946D01*
X152693658Y-101400896D01*
X152640994Y-101410598D01*
X152583436Y-101442483D01*
X152518169Y-101503845D01*
X152463651Y-101575994D01*
X152416436Y-101661220D01*
X152376844Y-101761307D01*
X152256958Y-101761307D01*
X152262733Y-101749024D01*
X152341285Y-101628156D01*
X152447919Y-101500547D01*
X152548329Y-101402325D01*
X152635957Y-101334475D01*
X152712762Y-101291144D01*
X152780761Y-101267551D01*
X152842035Y-101260212D01*
X152896792Y-101269410D01*
G37*
G36*
X152842860Y-102216606D02*
G01*
X153011113Y-102097263D01*
X153057603Y-102146577D01*
X153115525Y-102176016D01*
X153188616Y-102186381D01*
X153254248Y-102177044D01*
X153302243Y-102151308D01*
X153337158Y-102109023D01*
X153359891Y-102045514D01*
X153359409Y-101995227D01*
X153334857Y-101925099D01*
X153274071Y-101826337D01*
X153229466Y-101765612D01*
X153172215Y-101670633D01*
X153148837Y-101599369D01*
X153149140Y-101544786D01*
X153175450Y-101470209D01*
X153222249Y-101403181D01*
X153292755Y-101342186D01*
X153374953Y-101296693D01*
X153463234Y-101269466D01*
X153559468Y-101260212D01*
X153641159Y-101268037D01*
X153734316Y-101293277D01*
X153583831Y-101413627D01*
X153537962Y-101377098D01*
X153486714Y-101355516D01*
X153428218Y-101348140D01*
X153377624Y-101354598D01*
X153342014Y-101371958D01*
X153317355Y-101399510D01*
X153302281Y-101439639D01*
X153303150Y-101481909D01*
X153325739Y-101543674D01*
X153382148Y-101633995D01*
X153430142Y-101701956D01*
X153481765Y-101783056D01*
X153510316Y-101848060D01*
X153521453Y-101900436D01*
X153519168Y-101943390D01*
X153499558Y-102004276D01*
X153466034Y-102062534D01*
X153416829Y-102119060D01*
X153349175Y-102174291D01*
X153250321Y-102230674D01*
X153150267Y-102263453D01*
X153047108Y-102274309D01*
X152973442Y-102267762D01*
X152905789Y-102248542D01*
X152842860Y-102216606D01*
G37*
D12*
X114534819Y-93626666D02*
X114058628Y-93959999D01*
X114534819Y-94198094D02*
X113534819Y-94198094D01*
X113534819Y-94198094D02*
X113534819Y-93817142D01*
X113534819Y-93817142D02*
X113582438Y-93721904D01*
X113582438Y-93721904D02*
X113630057Y-93674285D01*
X113630057Y-93674285D02*
X113725295Y-93626666D01*
X113725295Y-93626666D02*
X113868152Y-93626666D01*
X113868152Y-93626666D02*
X113963390Y-93674285D01*
X113963390Y-93674285D02*
X114011009Y-93721904D01*
X114011009Y-93721904D02*
X114058628Y-93817142D01*
X114058628Y-93817142D02*
X114058628Y-94198094D01*
X114534819Y-92674285D02*
X114534819Y-93245713D01*
X114534819Y-92959999D02*
X113534819Y-92959999D01*
X113534819Y-92959999D02*
X113677676Y-93055237D01*
X113677676Y-93055237D02*
X113772914Y-93150475D01*
X113772914Y-93150475D02*
X113820533Y-93245713D01*
X122534819Y-93626666D02*
X122058628Y-93959999D01*
X122534819Y-94198094D02*
X121534819Y-94198094D01*
X121534819Y-94198094D02*
X121534819Y-93817142D01*
X121534819Y-93817142D02*
X121582438Y-93721904D01*
X121582438Y-93721904D02*
X121630057Y-93674285D01*
X121630057Y-93674285D02*
X121725295Y-93626666D01*
X121725295Y-93626666D02*
X121868152Y-93626666D01*
X121868152Y-93626666D02*
X121963390Y-93674285D01*
X121963390Y-93674285D02*
X122011009Y-93721904D01*
X122011009Y-93721904D02*
X122058628Y-93817142D01*
X122058628Y-93817142D02*
X122058628Y-94198094D01*
X121630057Y-93245713D02*
X121582438Y-93198094D01*
X121582438Y-93198094D02*
X121534819Y-93102856D01*
X121534819Y-93102856D02*
X121534819Y-92864761D01*
X121534819Y-92864761D02*
X121582438Y-92769523D01*
X121582438Y-92769523D02*
X121630057Y-92721904D01*
X121630057Y-92721904D02*
X121725295Y-92674285D01*
X121725295Y-92674285D02*
X121820533Y-92674285D01*
X121820533Y-92674285D02*
X121963390Y-92721904D01*
X121963390Y-92721904D02*
X122534819Y-93293332D01*
X122534819Y-93293332D02*
X122534819Y-92674285D01*
X129534819Y-93666666D02*
X129058628Y-93999999D01*
X129534819Y-94238094D02*
X128534819Y-94238094D01*
X128534819Y-94238094D02*
X128534819Y-93857142D01*
X128534819Y-93857142D02*
X128582438Y-93761904D01*
X128582438Y-93761904D02*
X128630057Y-93714285D01*
X128630057Y-93714285D02*
X128725295Y-93666666D01*
X128725295Y-93666666D02*
X128868152Y-93666666D01*
X128868152Y-93666666D02*
X128963390Y-93714285D01*
X128963390Y-93714285D02*
X129011009Y-93761904D01*
X129011009Y-93761904D02*
X129058628Y-93857142D01*
X129058628Y-93857142D02*
X129058628Y-94238094D01*
X128534819Y-93333332D02*
X128534819Y-92714285D01*
X128534819Y-92714285D02*
X128915771Y-93047618D01*
X128915771Y-93047618D02*
X128915771Y-92904761D01*
X128915771Y-92904761D02*
X128963390Y-92809523D01*
X128963390Y-92809523D02*
X129011009Y-92761904D01*
X129011009Y-92761904D02*
X129106247Y-92714285D01*
X129106247Y-92714285D02*
X129344342Y-92714285D01*
X129344342Y-92714285D02*
X129439580Y-92761904D01*
X129439580Y-92761904D02*
X129487200Y-92809523D01*
X129487200Y-92809523D02*
X129534819Y-92904761D01*
X129534819Y-92904761D02*
X129534819Y-93190475D01*
X129534819Y-93190475D02*
X129487200Y-93285713D01*
X129487200Y-93285713D02*
X129439580Y-93333332D01*
X102907200Y-131833332D02*
X102954819Y-131690475D01*
X102954819Y-131690475D02*
X102954819Y-131452380D01*
X102954819Y-131452380D02*
X102907200Y-131357142D01*
X102907200Y-131357142D02*
X102859580Y-131309523D01*
X102859580Y-131309523D02*
X102764342Y-131261904D01*
X102764342Y-131261904D02*
X102669104Y-131261904D01*
X102669104Y-131261904D02*
X102573866Y-131309523D01*
X102573866Y-131309523D02*
X102526247Y-131357142D01*
X102526247Y-131357142D02*
X102478628Y-131452380D01*
X102478628Y-131452380D02*
X102431009Y-131642856D01*
X102431009Y-131642856D02*
X102383390Y-131738094D01*
X102383390Y-131738094D02*
X102335771Y-131785713D01*
X102335771Y-131785713D02*
X102240533Y-131833332D01*
X102240533Y-131833332D02*
X102145295Y-131833332D01*
X102145295Y-131833332D02*
X102050057Y-131785713D01*
X102050057Y-131785713D02*
X102002438Y-131738094D01*
X102002438Y-131738094D02*
X101954819Y-131642856D01*
X101954819Y-131642856D02*
X101954819Y-131404761D01*
X101954819Y-131404761D02*
X102002438Y-131261904D01*
X101954819Y-130928570D02*
X102954819Y-130690475D01*
X102954819Y-130690475D02*
X102240533Y-130499999D01*
X102240533Y-130499999D02*
X102954819Y-130309523D01*
X102954819Y-130309523D02*
X101954819Y-130071428D01*
X102954819Y-129166666D02*
X102954819Y-129738094D01*
X102954819Y-129452380D02*
X101954819Y-129452380D01*
X101954819Y-129452380D02*
X102097676Y-129547618D01*
X102097676Y-129547618D02*
X102192914Y-129642856D01*
X102192914Y-129642856D02*
X102240533Y-129738094D01*
X127407200Y-131833332D02*
X127454819Y-131690475D01*
X127454819Y-131690475D02*
X127454819Y-131452380D01*
X127454819Y-131452380D02*
X127407200Y-131357142D01*
X127407200Y-131357142D02*
X127359580Y-131309523D01*
X127359580Y-131309523D02*
X127264342Y-131261904D01*
X127264342Y-131261904D02*
X127169104Y-131261904D01*
X127169104Y-131261904D02*
X127073866Y-131309523D01*
X127073866Y-131309523D02*
X127026247Y-131357142D01*
X127026247Y-131357142D02*
X126978628Y-131452380D01*
X126978628Y-131452380D02*
X126931009Y-131642856D01*
X126931009Y-131642856D02*
X126883390Y-131738094D01*
X126883390Y-131738094D02*
X126835771Y-131785713D01*
X126835771Y-131785713D02*
X126740533Y-131833332D01*
X126740533Y-131833332D02*
X126645295Y-131833332D01*
X126645295Y-131833332D02*
X126550057Y-131785713D01*
X126550057Y-131785713D02*
X126502438Y-131738094D01*
X126502438Y-131738094D02*
X126454819Y-131642856D01*
X126454819Y-131642856D02*
X126454819Y-131404761D01*
X126454819Y-131404761D02*
X126502438Y-131261904D01*
X126454819Y-130928570D02*
X127454819Y-130690475D01*
X127454819Y-130690475D02*
X126740533Y-130499999D01*
X126740533Y-130499999D02*
X127454819Y-130309523D01*
X127454819Y-130309523D02*
X126454819Y-130071428D01*
X126550057Y-129738094D02*
X126502438Y-129690475D01*
X126502438Y-129690475D02*
X126454819Y-129595237D01*
X126454819Y-129595237D02*
X126454819Y-129357142D01*
X126454819Y-129357142D02*
X126502438Y-129261904D01*
X126502438Y-129261904D02*
X126550057Y-129214285D01*
X126550057Y-129214285D02*
X126645295Y-129166666D01*
X126645295Y-129166666D02*
X126740533Y-129166666D01*
X126740533Y-129166666D02*
X126883390Y-129214285D01*
X126883390Y-129214285D02*
X127454819Y-129785713D01*
X127454819Y-129785713D02*
X127454819Y-129166666D01*
X152407200Y-131913332D02*
X152454819Y-131770475D01*
X152454819Y-131770475D02*
X152454819Y-131532380D01*
X152454819Y-131532380D02*
X152407200Y-131437142D01*
X152407200Y-131437142D02*
X152359580Y-131389523D01*
X152359580Y-131389523D02*
X152264342Y-131341904D01*
X152264342Y-131341904D02*
X152169104Y-131341904D01*
X152169104Y-131341904D02*
X152073866Y-131389523D01*
X152073866Y-131389523D02*
X152026247Y-131437142D01*
X152026247Y-131437142D02*
X151978628Y-131532380D01*
X151978628Y-131532380D02*
X151931009Y-131722856D01*
X151931009Y-131722856D02*
X151883390Y-131818094D01*
X151883390Y-131818094D02*
X151835771Y-131865713D01*
X151835771Y-131865713D02*
X151740533Y-131913332D01*
X151740533Y-131913332D02*
X151645295Y-131913332D01*
X151645295Y-131913332D02*
X151550057Y-131865713D01*
X151550057Y-131865713D02*
X151502438Y-131818094D01*
X151502438Y-131818094D02*
X151454819Y-131722856D01*
X151454819Y-131722856D02*
X151454819Y-131484761D01*
X151454819Y-131484761D02*
X151502438Y-131341904D01*
X151454819Y-131008570D02*
X152454819Y-130770475D01*
X152454819Y-130770475D02*
X151740533Y-130579999D01*
X151740533Y-130579999D02*
X152454819Y-130389523D01*
X152454819Y-130389523D02*
X151454819Y-130151428D01*
X151454819Y-129865713D02*
X151454819Y-129246666D01*
X151454819Y-129246666D02*
X151835771Y-129579999D01*
X151835771Y-129579999D02*
X151835771Y-129437142D01*
X151835771Y-129437142D02*
X151883390Y-129341904D01*
X151883390Y-129341904D02*
X151931009Y-129294285D01*
X151931009Y-129294285D02*
X152026247Y-129246666D01*
X152026247Y-129246666D02*
X152264342Y-129246666D01*
X152264342Y-129246666D02*
X152359580Y-129294285D01*
X152359580Y-129294285D02*
X152407200Y-129341904D01*
X152407200Y-129341904D02*
X152454819Y-129437142D01*
X152454819Y-129437142D02*
X152454819Y-129722856D01*
X152454819Y-129722856D02*
X152407200Y-129818094D01*
X152407200Y-129818094D02*
X152359580Y-129865713D01*
X137247350Y-113926120D02*
X136447350Y-113926120D01*
X136447350Y-113926120D02*
X136447350Y-113735644D01*
X136447350Y-113735644D02*
X136485445Y-113621358D01*
X136485445Y-113621358D02*
X136561635Y-113545168D01*
X136561635Y-113545168D02*
X136637826Y-113507073D01*
X136637826Y-113507073D02*
X136790207Y-113468977D01*
X136790207Y-113468977D02*
X136904493Y-113468977D01*
X136904493Y-113468977D02*
X137056874Y-113507073D01*
X137056874Y-113507073D02*
X137133064Y-113545168D01*
X137133064Y-113545168D02*
X137209255Y-113621358D01*
X137209255Y-113621358D02*
X137247350Y-113735644D01*
X137247350Y-113735644D02*
X137247350Y-113926120D01*
X136523540Y-113164216D02*
X136485445Y-113126120D01*
X136485445Y-113126120D02*
X136447350Y-113049930D01*
X136447350Y-113049930D02*
X136447350Y-112859454D01*
X136447350Y-112859454D02*
X136485445Y-112783263D01*
X136485445Y-112783263D02*
X136523540Y-112745168D01*
X136523540Y-112745168D02*
X136599731Y-112707073D01*
X136599731Y-112707073D02*
X136675921Y-112707073D01*
X136675921Y-112707073D02*
X136790207Y-112745168D01*
X136790207Y-112745168D02*
X137247350Y-113202311D01*
X137247350Y-113202311D02*
X137247350Y-112707073D01*
D13*
X164816547Y-83153479D02*
X165160505Y-83788479D01*
X165239880Y-83153479D02*
X164737172Y-83788479D01*
X165402410Y-83788479D02*
X165481785Y-83153479D01*
X165697232Y-83607050D02*
X165999613Y-83607050D01*
X165614077Y-83788479D02*
X165905119Y-83153479D01*
X165905119Y-83153479D02*
X166037410Y-83788479D01*
X166449405Y-83153479D02*
X166570357Y-83153479D01*
X166570357Y-83153479D02*
X166627053Y-83183717D01*
X166627053Y-83183717D02*
X166679970Y-83244193D01*
X166679970Y-83244193D02*
X166695089Y-83365145D01*
X166695089Y-83365145D02*
X166668631Y-83576812D01*
X166668631Y-83576812D02*
X166623274Y-83697764D01*
X166623274Y-83697764D02*
X166555238Y-83758241D01*
X166555238Y-83758241D02*
X166490982Y-83788479D01*
X166490982Y-83788479D02*
X166370030Y-83788479D01*
X166370030Y-83788479D02*
X166313333Y-83758241D01*
X166313333Y-83758241D02*
X166260417Y-83697764D01*
X166260417Y-83697764D02*
X166245297Y-83576812D01*
X166245297Y-83576812D02*
X166271756Y-83365145D01*
X166271756Y-83365145D02*
X166317113Y-83244193D01*
X166317113Y-83244193D02*
X166385149Y-83183717D01*
X166385149Y-83183717D02*
X166449405Y-83153479D01*
X167760982Y-83788479D02*
X167587113Y-83486098D01*
X167398125Y-83788479D02*
X167477500Y-83153479D01*
X167477500Y-83153479D02*
X167719405Y-83153479D01*
X167719405Y-83153479D02*
X167776101Y-83183717D01*
X167776101Y-83183717D02*
X167802560Y-83213955D01*
X167802560Y-83213955D02*
X167825238Y-83274431D01*
X167825238Y-83274431D02*
X167813899Y-83365145D01*
X167813899Y-83365145D02*
X167776101Y-83425621D01*
X167776101Y-83425621D02*
X167742084Y-83455860D01*
X167742084Y-83455860D02*
X167677828Y-83486098D01*
X167677828Y-83486098D02*
X167435923Y-83486098D01*
X168033125Y-83788479D02*
X168112500Y-83153479D01*
X168112500Y-83153479D02*
X168354405Y-83153479D01*
X168354405Y-83153479D02*
X168411101Y-83183717D01*
X168411101Y-83183717D02*
X168437560Y-83213955D01*
X168437560Y-83213955D02*
X168460238Y-83274431D01*
X168460238Y-83274431D02*
X168448899Y-83365145D01*
X168448899Y-83365145D02*
X168411101Y-83425621D01*
X168411101Y-83425621D02*
X168377084Y-83455860D01*
X168377084Y-83455860D02*
X168312828Y-83486098D01*
X168312828Y-83486098D02*
X168070923Y-83486098D01*
X168709703Y-83213955D02*
X168743720Y-83183717D01*
X168743720Y-83183717D02*
X168807976Y-83153479D01*
X168807976Y-83153479D02*
X168959167Y-83153479D01*
X168959167Y-83153479D02*
X169015863Y-83183717D01*
X169015863Y-83183717D02*
X169042322Y-83213955D01*
X169042322Y-83213955D02*
X169065000Y-83274431D01*
X169065000Y-83274431D02*
X169057441Y-83334907D01*
X169057441Y-83334907D02*
X169015863Y-83425621D01*
X169015863Y-83425621D02*
X168607649Y-83788479D01*
X168607649Y-83788479D02*
X169000744Y-83788479D01*
X169473215Y-83153479D02*
X169533691Y-83153479D01*
X169533691Y-83153479D02*
X169590387Y-83183717D01*
X169590387Y-83183717D02*
X169616846Y-83213955D01*
X169616846Y-83213955D02*
X169639524Y-83274431D01*
X169639524Y-83274431D02*
X169654643Y-83395383D01*
X169654643Y-83395383D02*
X169635744Y-83546574D01*
X169635744Y-83546574D02*
X169590387Y-83667526D01*
X169590387Y-83667526D02*
X169552590Y-83728002D01*
X169552590Y-83728002D02*
X169518572Y-83758241D01*
X169518572Y-83758241D02*
X169454316Y-83788479D01*
X169454316Y-83788479D02*
X169393840Y-83788479D01*
X169393840Y-83788479D02*
X169337143Y-83758241D01*
X169337143Y-83758241D02*
X169310685Y-83728002D01*
X169310685Y-83728002D02*
X169288006Y-83667526D01*
X169288006Y-83667526D02*
X169272887Y-83546574D01*
X169272887Y-83546574D02*
X169291786Y-83395383D01*
X169291786Y-83395383D02*
X169337143Y-83274431D01*
X169337143Y-83274431D02*
X169374941Y-83213955D01*
X169374941Y-83213955D02*
X169408959Y-83183717D01*
X169408959Y-83183717D02*
X169473215Y-83153479D01*
X170202709Y-83365145D02*
X170149792Y-83788479D01*
X170081756Y-83123241D02*
X169873869Y-83576812D01*
X169873869Y-83576812D02*
X170266965Y-83576812D01*
X170682739Y-83153479D02*
X170743215Y-83153479D01*
X170743215Y-83153479D02*
X170799911Y-83183717D01*
X170799911Y-83183717D02*
X170826370Y-83213955D01*
X170826370Y-83213955D02*
X170849048Y-83274431D01*
X170849048Y-83274431D02*
X170864167Y-83395383D01*
X170864167Y-83395383D02*
X170845268Y-83546574D01*
X170845268Y-83546574D02*
X170799911Y-83667526D01*
X170799911Y-83667526D02*
X170762114Y-83728002D01*
X170762114Y-83728002D02*
X170728096Y-83758241D01*
X170728096Y-83758241D02*
X170663840Y-83788479D01*
X170663840Y-83788479D02*
X170603364Y-83788479D01*
X170603364Y-83788479D02*
X170546667Y-83758241D01*
X170546667Y-83758241D02*
X170520209Y-83728002D01*
X170520209Y-83728002D02*
X170497530Y-83667526D01*
X170497530Y-83667526D02*
X170482411Y-83546574D01*
X170482411Y-83546574D02*
X170501310Y-83395383D01*
X170501310Y-83395383D02*
X170546667Y-83274431D01*
X170546667Y-83274431D02*
X170584465Y-83213955D01*
X170584465Y-83213955D02*
X170618483Y-83183717D01*
X170618483Y-83183717D02*
X170682739Y-83153479D01*
D12*
X112654295Y-113550475D02*
X111854295Y-113550475D01*
X111854295Y-113550475D02*
X111854295Y-113359999D01*
X111854295Y-113359999D02*
X111892390Y-113245713D01*
X111892390Y-113245713D02*
X111968580Y-113169523D01*
X111968580Y-113169523D02*
X112044771Y-113131428D01*
X112044771Y-113131428D02*
X112197152Y-113093332D01*
X112197152Y-113093332D02*
X112311438Y-113093332D01*
X112311438Y-113093332D02*
X112463819Y-113131428D01*
X112463819Y-113131428D02*
X112540009Y-113169523D01*
X112540009Y-113169523D02*
X112616200Y-113245713D01*
X112616200Y-113245713D02*
X112654295Y-113359999D01*
X112654295Y-113359999D02*
X112654295Y-113550475D01*
X112654295Y-112331428D02*
X112654295Y-112788571D01*
X112654295Y-112559999D02*
X111854295Y-112559999D01*
X111854295Y-112559999D02*
X111968580Y-112636190D01*
X111968580Y-112636190D02*
X112044771Y-112712380D01*
X112044771Y-112712380D02*
X112082866Y-112788571D01*
X161654295Y-114550475D02*
X160854295Y-114550475D01*
X160854295Y-114550475D02*
X160854295Y-114359999D01*
X160854295Y-114359999D02*
X160892390Y-114245713D01*
X160892390Y-114245713D02*
X160968580Y-114169523D01*
X160968580Y-114169523D02*
X161044771Y-114131428D01*
X161044771Y-114131428D02*
X161197152Y-114093332D01*
X161197152Y-114093332D02*
X161311438Y-114093332D01*
X161311438Y-114093332D02*
X161463819Y-114131428D01*
X161463819Y-114131428D02*
X161540009Y-114169523D01*
X161540009Y-114169523D02*
X161616200Y-114245713D01*
X161616200Y-114245713D02*
X161654295Y-114359999D01*
X161654295Y-114359999D02*
X161654295Y-114550475D01*
X160854295Y-113826666D02*
X160854295Y-113331428D01*
X160854295Y-113331428D02*
X161159057Y-113598094D01*
X161159057Y-113598094D02*
X161159057Y-113483809D01*
X161159057Y-113483809D02*
X161197152Y-113407618D01*
X161197152Y-113407618D02*
X161235247Y-113369523D01*
X161235247Y-113369523D02*
X161311438Y-113331428D01*
X161311438Y-113331428D02*
X161501914Y-113331428D01*
X161501914Y-113331428D02*
X161578104Y-113369523D01*
X161578104Y-113369523D02*
X161616200Y-113407618D01*
X161616200Y-113407618D02*
X161654295Y-113483809D01*
X161654295Y-113483809D02*
X161654295Y-113712380D01*
X161654295Y-113712380D02*
X161616200Y-113788571D01*
X161616200Y-113788571D02*
X161578104Y-113826666D01*
%TO.C,R1*%
D14*
X116920000Y-95380000D02*
X116920000Y-91540000D01*
X115080000Y-95380000D02*
X115080000Y-91540000D01*
%TO.C,R2*%
X124920000Y-95380000D02*
X124920000Y-91540000D01*
X123080000Y-95380000D02*
X123080000Y-91540000D01*
%TO.C,R3*%
X131920000Y-95420000D02*
X131920000Y-91580000D01*
X130080000Y-95420000D02*
X130080000Y-91580000D01*
%TO.C,SW1*%
X121985000Y-137565000D02*
X108015000Y-137565000D01*
X121985000Y-123595000D02*
X121985000Y-137565000D01*
X108015000Y-137565000D02*
X108015000Y-123595000D01*
X108015000Y-123595000D02*
X121985000Y-123595000D01*
%TO.C,SW2*%
X146985000Y-137565000D02*
X133015000Y-137565000D01*
X146985000Y-123595000D02*
X146985000Y-137565000D01*
X133015000Y-137565000D02*
X133015000Y-123595000D01*
X133015000Y-123595000D02*
X146985000Y-123595000D01*
%TO.C,SW3*%
X171985000Y-137565000D02*
X158015000Y-137565000D01*
X171985000Y-123595000D02*
X171985000Y-137565000D01*
X158015000Y-137565000D02*
X158015000Y-123595000D01*
X158015000Y-123595000D02*
X171985000Y-123595000D01*
%TO.C,D2*%
D15*
X139027055Y-115875645D02*
X142159055Y-115875645D01*
X139027055Y-115875645D02*
G75*
G02*
X142159055Y-115875645I1566000J2506124D01*
G01*
D11*
X140693055Y-116575645D02*
G75*
G02*
X140493055Y-116575645I-100000J0D01*
G01*
X140493055Y-116575645D02*
G75*
G02*
X140693055Y-116575645I100000J0D01*
G01*
%TO.C,XIAO RP2040*%
D15*
X157317500Y-87515000D02*
X157317500Y-101485000D01*
X159222500Y-85610000D02*
X176367500Y-85610000D01*
X159222500Y-103390000D02*
X176367500Y-103390000D01*
X178272500Y-90005000D02*
X179182772Y-90008728D01*
D16*
X178272500Y-101485000D02*
X178272500Y-87515000D01*
D15*
X178272500Y-101485000D02*
X178272500Y-87515000D01*
X179182500Y-99004000D02*
X178272500Y-99004000D01*
X179682500Y-90508728D02*
X179682500Y-98504000D01*
X157317500Y-87515000D02*
G75*
G02*
X159222500Y-85610000I1905001J-1D01*
G01*
X159222500Y-103390000D02*
G75*
G02*
X157317500Y-101485000I1J1905001D01*
G01*
X176367500Y-85610000D02*
G75*
G02*
X178272500Y-87515000I0J-1905000D01*
G01*
X178272500Y-101485000D02*
G75*
G02*
X176367500Y-103390000I-1905000J0D01*
G01*
X179182772Y-90008728D02*
G75*
G02*
X179682472Y-90508728I-272J-499972D01*
G01*
X179682500Y-98504000D02*
G75*
G02*
X179182500Y-99004000I-500000J0D01*
G01*
D17*
X177403500Y-86693000D02*
G75*
G02*
X176899500Y-86693000I-252000J0D01*
G01*
X176899500Y-86693000D02*
G75*
G02*
X177403500Y-86693000I252000J0D01*
G01*
X178283500Y-85550000D02*
G75*
G02*
X177779500Y-85550000I-252000J0D01*
G01*
X177779500Y-85550000D02*
G75*
G02*
X178283500Y-85550000I252000J0D01*
G01*
%TO.C,D1*%
D15*
X114434000Y-115500000D02*
X117566000Y-115500000D01*
X114434000Y-115500000D02*
G75*
G02*
X117566000Y-115500000I1566000J2506124D01*
G01*
D11*
X116100000Y-116200000D02*
G75*
G02*
X115900000Y-116200000I-100000J0D01*
G01*
X115900000Y-116200000D02*
G75*
G02*
X116100000Y-116200000I100000J0D01*
G01*
%TO.C,D3*%
D15*
X163434000Y-116500000D02*
X166566000Y-116500000D01*
X163434000Y-116500000D02*
G75*
G02*
X166566000Y-116500000I1566000J2506124D01*
G01*
D11*
X165100000Y-117200000D02*
G75*
G02*
X164900000Y-117200000I-100000J0D01*
G01*
X164900000Y-117200000D02*
G75*
G02*
X165100000Y-117200000I100000J0D01*
G01*
%TD*%
M02*
